<svg id="b1e7dc70-17ef-42b8-b237-f717c90bf582" data-name="Layer 1" xmlns="http://www.w3.org/2000/svg" width="170" height="110"><defs><style>.b6a9db2e-70ba-47e5-92a1-5e46f1fa3e01{fill:#fbc800}</style></defs><path d="M70.42 48.81h-1.59v3.95a8.67 8.67 0 0 1-2.35 0V41l.12-.1 2.4-.09h1.45a4.3 4.3 0 0 1 3 1 3.84 3.84 0 0 1 1.12 3 4.63 4.63 0 0 1-.3 1.72 3.38 3.38 0 0 1-.83 1.25 3.79 3.79 0 0 1-1.29.77 5 5 0 0 1-1.73.26zm-1.59-6.21V47H70a4.7 4.7 0 0 0 .81-.06 1.46 1.46 0 0 0 .57-.23 1.37 1.37 0 0 0 .42-.49 2.08 2.08 0 0 0 .26-.67 3.22 3.22 0 0 0 .09-.76A3.55 3.55 0 0 0 72 44a1.89 1.89 0 0 0-.29-.7 1.59 1.59 0 0 0-.55-.51 1.87 1.87 0 0 0-.87-.19h-.87a5.83 5.83 0 0 1-.59 0zM79 49.78v1.08h5.47a4.75 4.75 0 0 1 0 .85 1.3 1.3 0 0 1-1.49 1.11H78a1.28 1.28 0 0 1-1-.37 1.41 1.41 0 0 1-.36-1V41l.12-.13h7.25a4.59 4.59 0 0 1 .09.93 3.06 3.06 0 0 1-.19 1H79v3h4.07a3 3 0 0 1 .14 1 2.93 2.93 0 0 1-.14.95H79zm11.91-5.68v8.66a8.11 8.11 0 0 1-1.18.08 8 8 0 0 1-1.17-.08v-9.95h-2.97a4.78 4.78 0 0 1-.09-1 4.88 4.88 0 0 1 .09-1h8.31a3.58 3.58 0 0 1 .12.95.92.92 0 0 1-.3.76 1.51 1.51 0 0 1-1 .24h-1.78zm12.95.36a3.51 3.51 0 0 1-.17 1.09 3.17 3.17 0 0 1-.46.92 3.63 3.63 0 0 1-.69.72 3 3 0 0 1-.86.46 1.62 1.62 0 0 1 .76.53 3.73 3.73 0 0 1 .53 1l.64 1.75a4.39 4.39 0 0 0 .35.75 1.81 1.81 0 0 0 .47.52 1.51 1.51 0 0 1-.65.5 2.26 2.26 0 0 1-1 .2 1.13 1.13 0 0 1-.83-.32 3.07 3.07 0 0 1-.57-1.06l-.73-2.07a2.35 2.35 0 0 0-.58-.93 1.52 1.52 0 0 0-1-.32H98v4.56l-.54.06h-.64a7.4 7.4 0 0 1-1.13-.08V41l.12-.1 2.39-.06h1.57a4.42 4.42 0 0 1 3 .94 3.35 3.35 0 0 1 1.09 2.68zM98 42.57v3.82h1.6a1.65 1.65 0 0 0 1.86-1.88 1.65 1.65 0 0 0-1.86-1.87h-.93zm9.33 9.37q-1.86-1.61-1.86-5.11a9.53 9.53 0 0 1 .34-2.63 5.5 5.5 0 0 1 1-1.93 4.3 4.3 0 0 1 1.59-1.21 5 5 0 0 1 2.12-.42 5.11 5.11 0 0 1 2.12.42 4.23 4.23 0 0 1 1.57 1.21 5.29 5.29 0 0 1 1 1.94 10.23 10.23 0 0 1 0 5.23 5.46 5.46 0 0 1-1 1.94 4.2 4.2 0 0 1-1.57 1.2 5.11 5.11 0 0 1-2.12.42 4.83 4.83 0 0 1-3.19-1.06zm5.74-5.11q0-4.36-2.57-4.36t-2.58 4.36q0 4.35 2.58 4.35t2.57-4.35zm13.75 5.34a1.75 1.75 0 0 1-1.56.73 1.24 1.24 0 0 1-.92-.32 2.79 2.79 0 0 1-.54-1.06l-.8-2.27a3.12 3.12 0 0 0-.72-1.28 1.55 1.55 0 0 0-1.1-.38h-1v5.13a8.6 8.6 0 0 1-2.34 0V40.88a8.6 8.6 0 0 1 2.34 0v4.78h.7a.61.61 0 0 0 .41-.12 1.32 1.32 0 0 0 .31-.42l1.92-3.44a2.19 2.19 0 0 1 .52-.67 1.15 1.15 0 0 1 .73-.2c.32 0 .79 0 1.41.07l.14.17-2.32 4.21a3.51 3.51 0 0 1-.85 1.08 2.23 2.23 0 0 1 1.25.67 4.43 4.43 0 0 1 .77 1.38l.81 2.33c.08.21.13.34.15.38s0 .13.11.27a2.29 2.29 0 0 0 .38.6zm1.86.59V40.88a7 7 0 0 1 1.15-.08 8.1 8.1 0 0 1 1.2.08v11.88a8.1 8.1 0 0 1-1.2.08 7 7 0 0 1-1.15-.08zm5.11-.04l.92-11.82a9.34 9.34 0 0 1 1.54-.12 8.8 8.8 0 0 1 1.51.12l1.33 4.82q.54 2.14.66 3h.13q.12-.82.66-3l1.32-4.82a9.81 9.81 0 0 1 3.06 0l.92 11.82a4.57 4.57 0 0 1-1.12.12 6.63 6.63 0 0 1-1.09-.07l-.33-5.58c-.09-1.43-.14-2.69-.14-3.77H143L141 51a7.75 7.75 0 0 1-1.19.09 7.56 7.56 0 0 1-1.19-.09l-2-7.56h-.12c0 1.43-.07 2.68-.14 3.77l-.36 5.56a6.63 6.63 0 0 1-1.09.07 4.63 4.63 0 0 1-1.12-.12zm14.83.04V40.88a7 7 0 0 1 1.15-.08 8.1 8.1 0 0 1 1.2.08v11.88a8.1 8.1 0 0 1-1.2.08 7 7 0 0 1-1.15-.08zm11.38-2.7h-4.14l-.82 2.71a4.54 4.54 0 0 1-1 .09 3 3 0 0 1-1.04-.16l-.09-.12 3.88-11.7a12 12 0 0 1 1.39-.08 7.08 7.08 0 0 1 1.3.1l3.81 11.7a2.31 2.31 0 0 1-1.21.3 1.59 1.59 0 0 1-1-.26 2.14 2.14 0 0 1-.51-1zm-3.57-1.84h3.01l-.44-1.77c-.4-1.32-.71-2.45-.94-3.38h-.11c-.1.5-.36 1.48-.76 2.94zM71 64.73h2.7c1.07 0 1.6.49 1.6 1.48v4.55a13.47 13.47 0 0 1-4.54.73 5.24 5.24 0 0 1-2.2-.43A4.15 4.15 0 0 1 67 69.8a5.35 5.35 0 0 1-.94-1.93 9.25 9.25 0 0 1-.31-2.5 7.79 7.79 0 0 1 .45-2.78 5.7 5.7 0 0 1 1.2-2 4.75 4.75 0 0 1 1.73-1.14 5.71 5.71 0 0 1 2.06-.38 7.19 7.19 0 0 1 4.08 1.25 2.15 2.15 0 0 1-.37 1 2.54 2.54 0 0 1-.7.72 5 5 0 0 0-2.92-1q-3.14 0-3.13 4.26c0 2.84 1 4.25 3.11 4.25a7.92 7.92 0 0 0 1.84-.2v-2.66H72a1.25 1.25 0 0 1-.86-.24 1.07 1.07 0 0 1-.25-.78 2.88 2.88 0 0 1 .11-.94zm15.11-1.79a3.49 3.49 0 0 1-.17 1.06 3.05 3.05 0 0 1-.46.92 3.37 3.37 0 0 1-.69.72 3 3 0 0 1-.86.46 1.53 1.53 0 0 1 .76.54 3.52 3.52 0 0 1 .53 1l.64 1.75a4.39 4.39 0 0 0 .35.75 2 2 0 0 0 .47.52 1.61 1.61 0 0 1-.65.51 2.42 2.42 0 0 1-1 .19 1.17 1.17 0 0 1-.83-.31 3.14 3.14 0 0 1-.53-1.05l-.73-2.06a2.22 2.22 0 0 0-.58-.93 1.47 1.47 0 0 0-1-.33h-1.11v4.56l-.54.06a6.4 6.4 0 0 1-.64 0 6.23 6.23 0 0 1-1.13-.09V59.44l.12-.1c.94 0 1.73 0 2.39-.05s1.18 0 1.57 0a4.42 4.42 0 0 1 3 .94 3.36 3.36 0 0 1 1.09 2.71zM80.25 61v3.83c.6 0 1.13-.06 1.6-.06a1.88 1.88 0 0 0 0-3.75h-.93zM91 68.26v1.07h5.47a4.75 4.75 0 0 1-.05.85 1.3 1.3 0 0 1-1.49 1.11H90a1.28 1.28 0 0 1-1-.37 1.41 1.41 0 0 1-.36-1V59.48l.12-.12H96a4.59 4.59 0 0 1 .09.93 3 3 0 0 1-.19 1H91v3h4a2.78 2.78 0 0 1 .14 1 2.68 2.68 0 0 1-.14 1h-4zm6.7 1.93a2.73 2.73 0 0 1 .32-1 2.83 2.83 0 0 1 .62-.79 6.46 6.46 0 0 0 3.51 1.15 2 2 0 0 0 1.32-.39 1.2 1.2 0 0 0 .49-1c0-.68-.47-1.2-1.34-1.59l-2.05-.86a4.29 4.29 0 0 1-1.82-1.3 2.88 2.88 0 0 1-.61-1.82 3.31 3.31 0 0 1 .3-1.42 3.11 3.11 0 0 1 .87-1.11 4.51 4.51 0 0 1 1.34-.72 5.43 5.43 0 0 1 1.71-.26 8.05 8.05 0 0 1 3.76 1 2.5 2.5 0 0 1-.82 1.77 7.54 7.54 0 0 0-3.06-.82 1.94 1.94 0 0 0-1.28.38 1.22 1.22 0 0 0-.44.94c0 .53.41 1 1.23 1.31l2 .87a4.67 4.67 0 0 1 1.93 1.37 3 3 0 0 1 .68 2 3.67 3.67 0 0 1-.28 1.45 3 3 0 0 1-.84 1.15 4.28 4.28 0 0 1-1.41.74 6.52 6.52 0 0 1-2 .27 7.58 7.58 0 0 1-4.13-1.32zm10.95 1.04V59.36a6 6 0 0 1 1.15-.09 6.83 6.83 0 0 1 1.2.09v11.87a6.83 6.83 0 0 1-1.2.09 6 6 0 0 1-1.15-.09zm14.4-.59a1.77 1.77 0 0 1-1.57.73 1.25 1.25 0 0 1-.91-.31A3 3 0 0 1 120 70l-.79-2.27a3.12 3.12 0 0 0-.72-1.28 1.56 1.56 0 0 0-1.1-.37h-1v5.13a7.65 7.65 0 0 1-2.34 0V59.36a7.65 7.65 0 0 1 2.34 0v4.78h.69a.68.68 0 0 0 .42-.11 1.54 1.54 0 0 0 .31-.43l1.92-3.44a2 2 0 0 1 .52-.67 1.22 1.22 0 0 1 .73-.2c.32 0 .78 0 1.41.07l.14.17-2.36 4.23a3.58 3.58 0 0 1-.85 1.07 2.23 2.23 0 0 1 1.25.67 4.38 4.38 0 0 1 .76 1.39l.82 2.33c.08.2.13.33.14.37l.12.27a2.4 2.4 0 0 0 .38.61z"/><path d="M66.38 81.68a1.43 1.43 0 0 1 .15-.47 1.26 1.26 0 0 1 .29-.37 3.11 3.11 0 0 0 1.67.54.92.92 0 0 0 .62-.19.54.54 0 0 0 .23-.46q0-.48-.63-.75l-1-.41a2.1 2.1 0 0 1-.87-.62 1.37 1.37 0 0 1-.28-.86 1.47 1.47 0 0 1 .55-1.19 2.07 2.07 0 0 1 .64-.35 2.55 2.55 0 0 1 .81-.12 3.88 3.88 0 0 1 1.78.45 1.19 1.19 0 0 1-.39.84 3.67 3.67 0 0 0-1.45-.38.92.92 0 0 0-.61.18.55.55 0 0 0-.21.44c0 .25.2.46.59.62l1 .41a2.2 2.2 0 0 1 .91.65 1.43 1.43 0 0 1 .33.93 1.74 1.74 0 0 1-.14.69 1.32 1.32 0 0 1-.4.54 1.82 1.82 0 0 1-.66.36 3.3 3.3 0 0 1-1 .13 3.6 3.6 0 0 1-1.93-.61zm9.35-3.25a2.31 2.31 0 0 1 .58 1.7 3 3 0 0 1-.12.89 1.84 1.84 0 0 1-.36.68 1.55 1.55 0 0 1-.58.43 2 2 0 0 1-1.56 0 1.55 1.55 0 0 1-.58-.43 2.19 2.19 0 0 1-.36-.68 3 3 0 0 1-.12-.89 2.4 2.4 0 0 1 .48-1.58 1.65 1.65 0 0 1 1.36-.55 1.76 1.76 0 0 1 1.26.43zm-1.26.35c-.49 0-.73.45-.73 1.35s.24 1.34.73 1.34.73-.45.73-1.34-.2-1.35-.73-1.35zm5.65 2.6h.25a1.19 1.19 0 0 1 .09.44 2.21 2.21 0 0 1 0 .32 5.62 5.62 0 0 1-.8.07.91.91 0 0 1-.7-.24 1.1 1.1 0 0 1-.22-.76v-5.06h.42a.58.58 0 0 1 .45.15.78.78 0 0 1 .13.52V81c.03.25.15.38.38.38zm2.52-.54V79a1.41 1.41 0 0 0-.17-.78 1 1 0 0 1 .63-.22.6.6 0 0 1 .49.17.8.8 0 0 1 .13.51v1.91a1.05 1.05 0 0 0 .09.51.37.37 0 0 0 .34.15 1.14 1.14 0 0 0 .82-.38v-2.8a2.24 2.24 0 0 1 .53 0 2.64 2.64 0 0 1 .55 0V81a.84.84 0 0 0 .23.68 1.25 1.25 0 0 1-.15.31 1 1 0 0 1-.22.24 1 1 0 0 1-.83-.59 1.89 1.89 0 0 1-1.31.59 1 1 0 0 1-.84-.38 1.69 1.69 0 0 1-.29-1.01zm5.74 1.04a1.25 1.25 0 0 1 .32-.74 2.41 2.41 0 0 0 1.14.36.82.82 0 0 0 .44-.11.32.32 0 0 0 .17-.29c0-.19-.15-.35-.44-.46l-.46-.17c-.7-.26-1-.66-1-1.21a1.33 1.33 0 0 1 .11-.54 1.2 1.2 0 0 1 .31-.4 1.59 1.59 0 0 1 .48-.26A2.08 2.08 0 0 1 90 78h.35a2.66 2.66 0 0 1 .39.07l.38.1.31.12a1.12 1.12 0 0 1-.08.43.69.69 0 0 1-.22.33 2.94 2.94 0 0 0-1.13-.29.57.57 0 0 0-.34.1.34.34 0 0 0-.12.27c0 .17.14.31.41.41l.5.18a1.68 1.68 0 0 1 .81.52 1.13 1.13 0 0 1 .26.76 1.15 1.15 0 0 1-.43.94 2 2 0 0 1-1.25.35 2.92 2.92 0 0 1-1.46-.41zm6.78-2.96v3.25a1.09 1.09 0 0 1-.26 0h-.55a1.24 1.24 0 0 1-.27 0V79.3c0-.3-.12-.45-.37-.45h-.1a1.2 1.2 0 0 1 0-.38 1.33 1.33 0 0 1 0-.38h.76a.75.75 0 0 1 .58.23.93.93 0 0 1 .21.6zm-1.24-2.42a1.12 1.12 0 0 1 .54-.11 1.58 1.58 0 0 1 .34 0 .51.51 0 0 1 .18.08.25.25 0 0 1 .07.17 1.06 1.06 0 0 1 0 .25c0 .28 0 .44-.1.47a3.07 3.07 0 0 1-.52.08c-.3 0-.48 0-.54-.13a.81.81 0 0 1-.07-.42 1 1 0 0 1 .1-.39zm10.21 4.39h-2l-.39 1.29a2.08 2.08 0 0 1-.49 0 1.46 1.46 0 0 1-.51-.07v-.06l1.83-5.54a4.65 4.65 0 0 1 .66 0 3.7 3.7 0 0 1 .62 0l1.8 5.55a1.15 1.15 0 0 1-.57.14.71.71 0 0 1-.48-.13 1.06 1.06 0 0 1-.24-.47zm-1.69-.89h1.43l-.25-.84c-.19-.62-.34-1.16-.45-1.6 0 .24-.17.7-.37 1.4zm7.9-1.63A.93.93 0 0 1 111 78a1 1 0 0 1 .36.55.85.85 0 0 0-.23.69v2.29a4.9 4.9 0 0 1-.12 1.19 2 2 0 0 1-.34.75 1.27 1.27 0 0 1-.58.39 2.91 2.91 0 0 1-.82.11 3.73 3.73 0 0 1-1.49-.28 1.42 1.42 0 0 1 .07-.43 1.21 1.21 0 0 1 .2-.36 2.45 2.45 0 0 0 1.11.26c.61 0 .92-.33.92-1v-.33a1.58 1.58 0 0 1-1 .37 1.19 1.19 0 0 1-1.09-.56 3.39 3.39 0 0 1-.24-2.47 2.22 2.22 0 0 1 .34-.67 1.68 1.68 0 0 1 .51-.42 1.32 1.32 0 0 1 .62-.15 1.61 1.61 0 0 1 1.12.44zM110.1 81v-1.88a1 1 0 0 0-.68-.33.56.56 0 0 0-.51.35 2.19 2.19 0 0 0-.18 1 2 2 0 0 0 .16.94.51.51 0 0 0 .45.3 1 1 0 0 0 .76-.38zm3.48-2.42a.9.9 0 0 1 .13-.31.92.92 0 0 1 .21-.25 1.06 1.06 0 0 1 .92.74 1.05 1.05 0 0 1 1-.73 2 2 0 0 1 .5.06 1.82 1.82 0 0 1-.27 1 1.43 1.43 0 0 0-.38-.06.89.89 0 0 0-.77.51v2.63a2.93 2.93 0 0 1-.53 0 3.31 3.31 0 0 1-.55 0v-2.74a1.08 1.08 0 0 0-.26-.85zm7.63-.15a2.31 2.31 0 0 1 .59 1.7 3 3 0 0 1-.13.89 1.84 1.84 0 0 1-.36.68 1.47 1.47 0 0 1-.58.43 2 2 0 0 1-1.56 0 1.44 1.44 0 0 1-.57-.43 1.84 1.84 0 0 1-.36-.68 3 3 0 0 1-.13-.89 2.4 2.4 0 0 1 .48-1.58A1.65 1.65 0 0 1 120 78a1.73 1.73 0 0 1 1.21.43zm-1.26.35q-.72 0-.72 1.35c0 .89.24 1.34.72 1.34s.73-.45.73-1.34-.24-1.35-.68-1.35zm5.49.14v3.25a1.09 1.09 0 0 1-.26 0h-.55a1.24 1.24 0 0 1-.27 0V79.3c0-.3-.12-.45-.37-.45h-.1a1.2 1.2 0 0 1 0-.38 1.33 1.33 0 0 1 0-.38h.76a.75.75 0 0 1 .58.23.93.93 0 0 1 .21.6zm-1.24-2.42a1.15 1.15 0 0 1 .54-.11 1.58 1.58 0 0 1 .34 0 .51.51 0 0 1 .18.08.25.25 0 0 1 .08.17 2.09 2.09 0 0 1 0 .25c0 .28 0 .44-.1.47a2.87 2.87 0 0 1-.51.08c-.31 0-.49 0-.54-.13a.7.7 0 0 1-.08-.42 1.12 1.12 0 0 1 .09-.39zm7.3 2.92v1.8a1.36 1.36 0 0 0 .18.78 1 1 0 0 1-.64.23.63.63 0 0 1-.48-.16.8.8 0 0 1-.13-.51v-1.92a1.1 1.1 0 0 0-.09-.52.38.38 0 0 0-.34-.12 1.13 1.13 0 0 0-.82.39v2.8a1.09 1.09 0 0 1-.26 0h-.55a1.09 1.09 0 0 1-.26 0v-4.1h.41a.55.55 0 0 1 .58.49 1.82 1.82 0 0 1 1.19-.52 1 1 0 0 1 .88.38 1.7 1.7 0 0 1 .33.98zm4.02-1.42a1.9 1.9 0 0 1 .84.23v-2.12h.41a.59.59 0 0 1 .46.15.78.78 0 0 1 .13.52V81a.85.85 0 0 0 .23.69.93.93 0 0 1-.14.31.9.9 0 0 1-.21.25 1 1 0 0 1-.78-.49 1.51 1.51 0 0 1-1.18.54 1.17 1.17 0 0 1-.62-.16 1.29 1.29 0 0 1-.45-.42A2.1 2.1 0 0 1 134 81a4 4 0 0 1-.09-.89 2.73 2.73 0 0 1 .13-.89 2 2 0 0 1 .34-.67 1.52 1.52 0 0 1 .52-.43 1.33 1.33 0 0 1 .62-.12zm.09 3.4a.91.91 0 0 0 .75-.41v-1.92a2 2 0 0 0-.35-.18.89.89 0 0 0-.31-.06.58.58 0 0 0-.51.33 2.06 2.06 0 0 0-.19 1 1.89 1.89 0 0 0 .17.94.5.5 0 0 0 .44.3zm4.46-.56V79a1.5 1.5 0 0 0-.17-.78 1 1 0 0 1 .63-.23.6.6 0 0 1 .49.17.87.87 0 0 1 .13.51v1.91a1.05 1.05 0 0 0 .09.51.36.36 0 0 0 .34.15 1.1 1.1 0 0 0 .81-.38v-2.8a2.3 2.3 0 0 1 .53 0 2.51 2.51 0 0 1 .55 0V81a.87.87 0 0 0 .23.68 1.19 1.19 0 0 1-.14.31 1 1 0 0 1-.22.24.94.94 0 0 1-.83-.59 1.91 1.91 0 0 1-1.31.59 1 1 0 0 1-.84-.38 1.69 1.69 0 0 1-.29-1.01zm5.73 1.04a1.37 1.37 0 0 1 .1-.4 1.33 1.33 0 0 1 .22-.34 2.48 2.48 0 0 0 1.15.36.82.82 0 0 0 .44-.11.34.34 0 0 0 .17-.29c0-.19-.15-.35-.45-.46l-.46-.17c-.69-.26-1-.66-1-1.21a1.33 1.33 0 0 1 .11-.54 1.23 1.23 0 0 1 .32-.4 1.38 1.38 0 0 1 .48-.26 2 2 0 0 1 .62-.09h.35a3.06 3.06 0 0 1 .4.07l.37.1.32.12a1.35 1.35 0 0 1-.08.43.7.7 0 0 1-.23.33 2.9 2.9 0 0 0-1.13-.29.54.54 0 0 0-.33.1.32.32 0 0 0-.13.27c0 .17.14.31.42.41l.5.18a1.64 1.64 0 0 1 .8.52 1.14 1.14 0 0 1 .24.79 1.16 1.16 0 0 1-.44.94 2 2 0 0 1-1.25.35 3 3 0 0 1-1.51-.41zm7.74-3.8a1.28 1.28 0 0 1 .05.38 1.31 1.31 0 0 1-.05.39h-1V81c0 .25.11.38.35.38h.51a1.33 1.33 0 0 1 .08.47 1.57 1.57 0 0 1 0 .29 6.78 6.78 0 0 1-1 .07.88.88 0 0 1-1-1v-2.37h-.62a1.48 1.48 0 0 1-.05-.39 1.46 1.46 0 0 1 .05-.38h.62v-.6a.82.82 0 0 1 .13-.51.59.59 0 0 1 .46-.15h.47v1.21zm2.09.5a1.19 1.19 0 0 1 .14-.31.92.92 0 0 1 .23-.27 1 1 0 0 1 .91.74 1.07 1.07 0 0 1 1.05-.73 1.83 1.83 0 0 1 .49.06 1.82 1.82 0 0 1-.26 1 1.43 1.43 0 0 0-.38-.06.88.88 0 0 0-.77.51v2.63a3 3 0 0 1-.53 0 3.24 3.24 0 0 1-.55 0v-2.72a1.05 1.05 0 0 0-.33-.85zm6.37.34v3.25a1.09 1.09 0 0 1-.26 0h-.55a1.24 1.24 0 0 1-.27 0V79.3c0-.3-.12-.45-.37-.45h-.11a1.58 1.58 0 0 1-.05-.38 1.81 1.81 0 0 1 .05-.38h.77a.75.75 0 0 1 .58.23.93.93 0 0 1 .21.6zm-1.24-2.42a1.09 1.09 0 0 1 .54-.11 1.42 1.42 0 0 1 .33 0 .49.49 0 0 1 .19.08.25.25 0 0 1 .07.17 2.11 2.11 0 0 1 0 .25c0 .28-.05.44-.1.47a3.29 3.29 0 0 1-.52.08c-.31 0-.49 0-.54-.13a.78.78 0 0 1-.08-.42 1 1 0 0 1 .07-.39zM56.11 59.11a16.62 16.62 0 0 0-3-6A12.69 12.69 0 0 0 49.3 50a11.1 11.1 0 0 0-4.62-1.41h-1.09l1 .45A9.67 9.67 0 0 1 47 50.71a7.65 7.65 0 0 1 2.43 5.61c0 4.58-2.18 6.64-4.55 8.73a6.12 6.12 0 0 0-1-1.8 5 5 0 0 0-4.63-1.77l-.95.11.9.32a3.07 3.07 0 0 1 2 2.64 3.8 3.8 0 0 1-1.11 2.32 6.43 6.43 0 0 0-1.73 4 3.42 3.42 0 0 0-1.05-.17A2.79 2.79 0 0 0 35 71.87a2.47 2.47 0 0 0-1.53-1.33c-1.08-.28-1.46-.73-1.51-.88l-.22-.5-.22.5c-.08.18-.42.6-1.51.88a2.49 2.49 0 0 0-1.53 1.33 2.79 2.79 0 0 0-2.26-1.14 3.47 3.47 0 0 0-1.05.17 6.38 6.38 0 0 0-1.73-4 3.8 3.8 0 0 1-1.11-2.32 3.07 3.07 0 0 1 2-2.64l.91-.32-1-.11a5 5 0 0 0-4.63 1.77 6.37 6.37 0 0 0-1 1.8c-2.31-2.08-4.48-4.18-4.48-8.76a7.64 7.64 0 0 1 2.42-5.61A9.43 9.43 0 0 1 19 49l1-.45h-1.09A11.1 11.1 0 0 0 14.26 50a12.69 12.69 0 0 0-3.79 3.15 16.6 16.6 0 0 0-3 6A16.35 16.35 0 0 0 9.7 73.31a12.75 12.75 0 0 0 9.58 5.5 9.66 9.66 0 0 0 .72 1.08c1.88 2.58 3.84 3.63 6.78 3.63a8.18 8.18 0 0 0 5-1.72 8.18 8.18 0 0 0 5 1.72c2.94 0 4.9-1 6.78-3.63a11.53 11.53 0 0 0 .7-1.08 12.76 12.76 0 0 0 9.58-5.5 16.41 16.41 0 0 0 2.27-14.2z" fill="#009d3c"/><path d="M56.11 59.11a16.62 16.62 0 0 0-3-6A12.69 12.69 0 0 0 49.3 50a11.1 11.1 0 0 0-4.62-1.41h-1.09l1 .45A9.67 9.67 0 0 1 47 50.71a7.65 7.65 0 0 1 2.43 5.61c0 4.58-2.18 6.64-4.55 8.73a6.12 6.12 0 0 0-1-1.8 5 5 0 0 0-4.63-1.77l-.95.11.9.32a3.07 3.07 0 0 1 2 2.64 3.8 3.8 0 0 1-1.11 2.32 6.43 6.43 0 0 0-1.73 4 3.42 3.42 0 0 0-1.05-.17A2.79 2.79 0 0 0 35 71.87a2.47 2.47 0 0 0-1.53-1.33c-1.08-.28-1.46-.73-1.51-.88l-.22-.5-.22.5c-.08.18-.42.6-1.51.88a2.49 2.49 0 0 0-1.53 1.33 2.79 2.79 0 0 0-2.26-1.14 3.47 3.47 0 0 0-1.05.17 6.38 6.38 0 0 0-1.73-4 3.8 3.8 0 0 1-1.11-2.32 3.07 3.07 0 0 1 2-2.64l.91-.32-1-.11a5 5 0 0 0-4.63 1.77 6.37 6.37 0 0 0-1 1.8c-2.31-2.08-4.48-4.18-4.48-8.76a7.64 7.64 0 0 1 2.42-5.61A9.43 9.43 0 0 1 19 49l1-.45h-1.09A11.1 11.1 0 0 0 14.26 50a12.69 12.69 0 0 0-3.79 3.15 16.6 16.6 0 0 0-3 6A16.35 16.35 0 0 0 9.7 73.31a12.75 12.75 0 0 0 9.58 5.5 9.66 9.66 0 0 0 .72 1.08c1.88 2.58 3.84 3.63 6.78 3.63a8.18 8.18 0 0 0 5-1.72 8.18 8.18 0 0 0 5 1.72c2.94 0 4.9-1 6.78-3.63a11.53 11.53 0 0 0 .7-1.08 12.76 12.76 0 0 0 9.58-5.5 16.41 16.41 0 0 0 2.27-14.2zM10.05 73.05a16 16 0 0 1-2.17-13.82 16.08 16.08 0 0 1 2.93-5.83 12 12 0 0 1 7-4.27 10.79 10.79 0 0 0-1.57 1.27 8.21 8.21 0 0 0-2.55 5.92c0 4.91 2.38 7 4.9 9.25l.77.69A5.67 5.67 0 0 1 21 72.35a2.83 2.83 0 0 1-2.66 2 2.94 2.94 0 0 1-2.24-.88 2.74 2.74 0 0 1-.71-1.86 2 2 0 0 1 1.88-2.13 1.33 1.33 0 0 1 1.05.44 1.52 1.52 0 0 1 .35 1 1.25 1.25 0 0 1-1.3 1.33v.44a1.7 1.7 0 0 0 1.31-.56 1.83 1.83 0 0 0 .43-1.21 1.79 1.79 0 0 0-1.84-1.86A2.38 2.38 0 0 0 15 71.64a3.18 3.18 0 0 0 .83 2.16 3.28 3.28 0 0 0 2.34 1 9 9 0 0 0 .83 3.55 12.36 12.36 0 0 1-8.95-5.3zm33.19 6.58a8.62 8.62 0 0 1-2.7 2.57 7.38 7.38 0 0 1-3.73.88 7.72 7.72 0 0 1-4.88-1.73l-.15-.12-.15.12a7.72 7.72 0 0 1-4.88 1.73A7.38 7.38 0 0 1 23 82.2a8.72 8.72 0 0 1-2.7-2.57 8.83 8.83 0 0 1-1.76-4.82 3.32 3.32 0 0 0 2.85-2.3 5.69 5.69 0 0 0 .19-3.31 6.44 6.44 0 0 0-1.94-3.27l-.64-.56a5.56 5.56 0 0 1 1-1.85 4.41 4.41 0 0 1 3.43-1.63 2.46 2.46 0 0 0-.39.29 3 3 0 0 0-1.16 2.37 4.13 4.13 0 0 0 1.21 2.59 6 6 0 0 1 1.64 4.08v.36l.32-.16a2.52 2.52 0 0 1 3.29 1l.25.4.14-.46A2.3 2.3 0 0 1 30.16 71a3.4 3.4 0 0 0 1.62-.82 3.4 3.4 0 0 0 1.62.82 2.27 2.27 0 0 1 1.38 1.42l.14.46.26-.4a2.52 2.52 0 0 1 3.29-1l.31.16v-.36a6 6 0 0 1 1.64-4.08 4.13 4.13 0 0 0 1.21-2.59 3 3 0 0 0-1.15-2.37 3.07 3.07 0 0 0-.4-.29 4.41 4.41 0 0 1 3.43 1.63 5.85 5.85 0 0 1 1 1.85l-.63.56A6.31 6.31 0 0 0 42 69.2a5.69 5.69 0 0 0 .18 3.31 3.33 3.33 0 0 0 2.82 2.3 8.83 8.83 0 0 1-1.76 4.82zm10.27-6.58a12.34 12.34 0 0 1-9 5.3 8.84 8.84 0 0 0 .92-3.54 3.28 3.28 0 0 0 2.34-1 3.18 3.18 0 0 0 .83-2.16 2.38 2.38 0 0 0-2.32-2.57 1.79 1.79 0 0 0-1.84 1.86 1.83 1.83 0 0 0 .43 1.21 1.7 1.7 0 0 0 1.31.56v-.44a1.25 1.25 0 0 1-1.3-1.33 1.52 1.52 0 0 1 .35-1 1.34 1.34 0 0 1 1-.44 2 2 0 0 1 1.88 2.13 2.74 2.74 0 0 1-.71 1.86 2.92 2.92 0 0 1-2.24.88 2.85 2.85 0 0 1-2.66-2 5.69 5.69 0 0 1 1.64-6.09l.77-.69c2.52-2.23 4.91-4.34 4.91-9.25a8.18 8.18 0 0 0-2.56-5.92 10.79 10.79 0 0 0-1.57-1.27 12.24 12.24 0 0 1 3.36 1.22 12.39 12.39 0 0 1 3.65 3 16.92 16.92 0 0 1 .75 19.65z"/><path class="b6a9db2e-70ba-47e5-92a1-5e46f1fa3e01" d="M39.34 38.88a6.63 6.63 0 0 0 .29-1.69 3.09 3.09 0 0 0-1.25-2.87c-1.06-.69-1.85-1.1-2.42-1.41a5.22 5.22 0 0 1-1.06-.63 3.77 3.77 0 0 1-.3-.34 3.41 3.41 0 0 0-2.82-1.42A3.37 3.37 0 0 0 29 31.94l-.31.34a5.39 5.39 0 0 1-1.05.63c-.58.31-1.37.72-2.43 1.41a3.09 3.09 0 0 0-1.25 2.87 7.13 7.13 0 0 0 .29 1.69c-.52.76-1.44 2.17-1.44 5.8a8.24 8.24 0 0 0 1.29 4.42 7.78 7.78 0 0 0 1.27 1.53 37.46 37.46 0 0 0 1.49 5.51 10.74 10.74 0 0 0-.4 2 5.16 5.16 0 0 0 .18 1.26 6.84 6.84 0 0 1 .21 1.35 18.71 18.71 0 0 1-1 3.91c-.08.22-.16.45-.25.67-.29.75-.54 1.39-.15 1.7a.77.77 0 0 0 .74.15 1.11 1.11 0 0 0 .89.28 1.74 1.74 0 0 0 1.55-1.26v-.84A1.59 1.59 0 0 0 30 64a14.46 14.46 0 0 0-.09-2.41 11.14 11.14 0 0 1 0-3.1 7 7 0 0 1 .43-1 4.32 4.32 0 0 0 .66-2.06v-1.6c.29.37.55.57.8.57s.49-.21.79-.59v1.62a4.32 4.32 0 0 0 .65 2.13 7 7 0 0 1 .43 1 11.55 11.55 0 0 1 0 3.1 13.44 13.44 0 0 0-.15 2.34A1.57 1.57 0 0 0 35 65.36v.84a1.74 1.74 0 0 0 1.56 1.26 1.1 1.1 0 0 0 .88-.28.77.77 0 0 0 .66-.18c.39-.31.14-1-.15-1.7l-.25-.67a19.21 19.21 0 0 1-1-3.91 6.79 6.79 0 0 1 .2-1.35 5.76 5.76 0 0 0 .19-1.26 11.5 11.5 0 0 0-.41-2 37.46 37.46 0 0 0 1.49-5.51 7.78 7.78 0 0 0 1.27-1.53 8.24 8.24 0 0 0 1.32-4.42c.02-3.6-.9-5.01-1.42-5.77z"/><path d="M39.34 38.88a7.13 7.13 0 0 0 .29-1.69 3.09 3.09 0 0 0-1.25-2.87c-1.06-.69-1.85-1.1-2.42-1.41a5.22 5.22 0 0 1-1.06-.63 3.77 3.77 0 0 1-.3-.34 3.41 3.41 0 0 0-2.82-1.42A3.37 3.37 0 0 0 29 31.94l-.31.34a5.39 5.39 0 0 1-1.05.63c-.58.31-1.37.72-2.43 1.41a3.09 3.09 0 0 0-1.25 2.87 7.13 7.13 0 0 0 .29 1.69c-.52.76-1.44 2.17-1.44 5.8a8.24 8.24 0 0 0 1.29 4.42 7.78 7.78 0 0 0 1.27 1.53 37.46 37.46 0 0 0 1.49 5.51 10.74 10.74 0 0 0-.4 2 5.16 5.16 0 0 0 .18 1.26 6.84 6.84 0 0 1 .21 1.35 18.71 18.71 0 0 1-1 3.91c-.08.22-.16.45-.25.67-.29.75-.54 1.39-.15 1.7a.77.77 0 0 0 .74.15 1.11 1.11 0 0 0 .89.28 1.74 1.74 0 0 0 1.55-1.26v-.84A1.59 1.59 0 0 0 30 64a14.46 14.46 0 0 0-.09-2.41 11.14 11.14 0 0 1 0-3.1 7 7 0 0 1 .43-1 4.32 4.32 0 0 0 .66-2.06v-1.6c.29.37.55.57.8.57s.49-.21.79-.59v1.62a4.32 4.32 0 0 0 .65 2.13 7 7 0 0 1 .43 1 11.55 11.55 0 0 1 0 3.1 13.44 13.44 0 0 0-.15 2.34A1.57 1.57 0 0 0 35 65.36v.84a1.74 1.74 0 0 0 1.55 1.26 1.11 1.11 0 0 0 .89-.28.77.77 0 0 0 .66-.18c.39-.31.14-1-.15-1.7l-.25-.67a19.21 19.21 0 0 1-1-3.91 6.79 6.79 0 0 1 .2-1.35 5.76 5.76 0 0 0 .19-1.26 11.5 11.5 0 0 0-.41-2 37.46 37.46 0 0 0 1.49-5.51 7.78 7.78 0 0 0 1.27-1.53 8.24 8.24 0 0 0 1.32-4.42c.02-3.6-.9-5.01-1.42-5.77zm-8.75 16.55a4 4 0 0 1-.6 2 6.32 6.32 0 0 0-.46 1 11.35 11.35 0 0 0 0 3.26 12.65 12.65 0 0 1 .1 2.31 1.2 1.2 0 0 1-1 1c-.05-1.52-.14-3.94-.15-4.33a23.55 23.55 0 0 0 1.06-2.76 8.69 8.69 0 0 0-.09-2.45 12 12 0 0 0 .17-1.92 10.11 10.11 0 0 0-.15-2c.16.24.33.52.5.79s.45.74.65 1zM33.9 64a13.39 13.39 0 0 1 .1-2.33 11.07 11.07 0 0 0 0-3.26 8.72 8.72 0 0 0-.46-1 4 4 0 0 1-.6-2v-2.13c.18-.28.39-.6.61-1l.55-.86a11.06 11.06 0 0 0-.1 2.09 12 12 0 0 0 .17 1.92 9.09 9.09 0 0 0-.09 2.45 23.55 23.55 0 0 0 1.06 2.76C35.1 61 35 63.45 35 65a1.2 1.2 0 0 1-1.1-1zm4-13.59h-.06v.08a38 38 0 0 1-1.5 5.55v.12a10.6 10.6 0 0 1 .41 2 5.15 5.15 0 0 1-.18 1.16 7.38 7.38 0 0 0-.21 1.43 20.14 20.14 0 0 0 1 4l.25.69c.2.5.44 1.13.27 1.26a.38.38 0 0 1-.47 0l-.28-.2v.33c0 .06-.17.18-.62.18a1.45 1.45 0 0 1-1.16-.88c0-.17.12-3.73.19-5.59a24.35 24.35 0 0 1-1-2.74 9.25 9.25 0 0 1 .09-2.33v-.08a12.24 12.24 0 0 1 .12-4.58l.12-.45-.4.24a5.69 5.69 0 0 0-1.12 1.52c-.29.48-.59 1-.87 1.34-.42.55-.57.57-.59.57-.33 0-1.07-1.23-1.52-2a5.54 5.54 0 0 0-1.05-1.47l-.41-.24.12.45a11.69 11.69 0 0 1-.03 4.61v.08a9.11 9.11 0 0 1 .1 2.33 26 26 0 0 1-1.06 2.74c.07 1.86.2 5.42.2 5.59a1.49 1.49 0 0 1-1.17.88c-.45 0-.59-.12-.61-.18v-.33l-.28.2a.37.37 0 0 1-.47 0c-.17-.13.08-.76.27-1.26.09-.23.18-.46.25-.69a20.14 20.14 0 0 0 1-4 7.38 7.38 0 0 0-.23-1.42 5.15 5.15 0 0 1-.18-1.16 10.6 10.6 0 0 1 .41-2v-.12a37 37 0 0 1-1.49-5.55v-.08h-.06a8 8 0 0 1-2.51-5.71c0-3.59.91-4.92 1.41-5.63l.07-.11v-.09s-1.05-3 .77-4.2a26.37 26.37 0 0 1 2.4-1.4 5.8 5.8 0 0 0 1.13-.69 3.17 3.17 0 0 0 .34-.37 3.12 3.12 0 0 1 5 0 4.38 4.38 0 0 0 .34.37 5.63 5.63 0 0 0 1.14.69 25.17 25.17 0 0 1 2.39 1.4c1.82 1.19.79 4.17.77 4.2v.09l.08.11c.49.71 1.4 2 1.4 5.63a8 8 0 0 1-2.53 5.69z"/><path class="b6a9db2e-70ba-47e5-92a1-5e46f1fa3e01" d="M33.73 42.29a1.42 1.42 0 0 1-.5-.11 3.39 3.39 0 0 0-1.45-.39 3.59 3.59 0 0 0-1.45.39.94.94 0 0 1-.87 0 .71.71 0 0 1-.27-.57v-1.37c-1.14-.42-1.28-1.77-1.17-2.63a2.23 2.23 0 0 1-1.5-.48C24 38.06 23 36.7 23 36.64l-.17-.25h.3a6.67 6.67 0 0 0 2.81-1.17 7.24 7.24 0 0 1-1.28-1 4.8 4.8 0 0 1-1.57-3.48 4.62 4.62 0 0 1 1.5-3.74 3.83 3.83 0 0 1 1.55-.8L27 26l-.72.52a3.19 3.19 0 0 0-1.49 2.84 4.49 4.49 0 0 0 2.09 3.44 3 3 0 0 0 3.52-.26h.07a1.64 1.64 0 0 1 1.3 0 1.64 1.64 0 0 1 1.3 0h.07a3 3 0 0 0 3.52.26 4.52 4.52 0 0 0 2.1-3.44 3.23 3.23 0 0 0-1.49-2.84l-.72-.52.87.17A3.77 3.77 0 0 1 39 27a4.62 4.62 0 0 1 1.53 3.74 4.8 4.8 0 0 1-1.57 3.48 7.63 7.63 0 0 1-1.27 1 6.62 6.62 0 0 0 2.8 1.17h.31l-.18.25a2.32 2.32 0 0 1-1.92.82 4.65 4.65 0 0 1-1.7-.33 2.23 2.23 0 0 1-1.5.48c.11.86 0 2.21-1.17 2.63v1.38a.71.71 0 0 1-.28.57.61.61 0 0 1-.32.1z"/><path d="M34.2 35.58a2 2 0 0 0-1.08 1.72 1.34 1.34 0 0 1 .07-1.21 1.12 1.12 0 0 1 1.01-.51z"/><path d="M34.69 35.77c-.07.29-.42.42-.69.54 0 0 .09.6-.2.68s-.25-.37-.25-.37a2 2 0 0 0-.24.72l.21-.09a.94.94 0 0 1-.28.22 1.35 1.35 0 0 1 .29-1c.37-.41.87-.36 1.16-.7zm-5.35-.19a2 2 0 0 1 1.09 1.72 1.36 1.36 0 0 0-.08-1.21 1.12 1.12 0 0 0-1.01-.51z"/><path d="M28.85 35.77c.07.29.42.42.69.54 0 0-.09.6.2.68s.25-.37.25-.37a1.84 1.84 0 0 1 .24.72l-.23-.09a.94.94 0 0 0 .28.22 1.37 1.37 0 0 0-.28-1c-.36-.41-.86-.36-1.15-.7zm3.5 3.66a2 2 0 0 1-1.06 0 1 1 0 0 1-.54-.38c0 .88 1.07.86 1.07.86s1.07 0 1.07-.86a1 1 0 0 1-.54.38zm-.03 1.36c0-.2.21-.15.34-.23A.66.66 0 0 0 33 40a.87.87 0 0 1 0 .74c-.27.33-.68.35-.68.05zm-1.04 0c0-.2-.21-.15-.35-.23a.71.71 0 0 1-.32-.56.85.85 0 0 0 0 .74c.26.33.66.35.67.05zM33.12 35c-.37 0-.95-.1-1.25.17a.13.13 0 0 1-.18 0c-.3-.27-.88-.17-1.25-.17a1.3 1.3 0 0 1-.74-.26c.26.59.88.49 1.33.55a.89.89 0 0 1 .58.46.21.21 0 0 0 .34 0 .89.89 0 0 1 .58-.46c.45-.06 1.08 0 1.34-.55a1.35 1.35 0 0 1-.75.26zm6.36-5.88a4.59 4.59 0 0 1-3.84 5.16l.79.51s4.15-1.62 3.05-5.67zm-15.4 0c-1.1 4.05 3.05 5.67 3.05 5.67l.79-.51a4.6 4.6 0 0 1-3.84-5.16z"/><path d="M40.46 36.34a6.62 6.62 0 0 1-2.8-1.17 7.63 7.63 0 0 0 1.27-1 4.8 4.8 0 0 0 1.57-3.48A4.62 4.62 0 0 0 39 27a3.77 3.77 0 0 0-1.55-.8l-.9-.2.73.52a3.23 3.23 0 0 1 1.49 2.84 4.52 4.52 0 0 1-2.1 3.44 3 3 0 0 1-3.52-.26h-.07a1.64 1.64 0 0 0-1.3 0 1.64 1.64 0 0 0-1.3 0h-.07a3 3 0 0 1-3.52.26 4.49 4.49 0 0 1-2.09-3.44 3.19 3.19 0 0 1 1.49-2.84L27 26l-.87.17a3.83 3.83 0 0 0-1.55.8 4.62 4.62 0 0 0-1.53 3.74 4.8 4.8 0 0 0 1.57 3.48 7.63 7.63 0 0 0 1.27 1 6.57 6.57 0 0 1-2.8 1.17h-.3l.17.25c0 .06 1 1.42 3.55.49a2.23 2.23 0 0 0 1.5.48c-.11.86 0 2.21 1.17 2.63v1.37a.71.71 0 0 0 .27.57.83.83 0 0 0 .72 0 2.09 2.09 0 0 0 1.59.64h.09a2 2 0 0 0 1.49-.65 1.1 1.1 0 0 0 .38.07.61.61 0 0 0 .36-.1.71.71 0 0 0 .28-.57v-1.3c1.14-.42 1.28-1.77 1.17-2.63a2.23 2.23 0 0 0 1.5-.48 4.65 4.65 0 0 0 1.63.33 2.32 2.32 0 0 0 1.92-.82l.18-.25zm-8.61 6.14a1.86 1.86 0 0 1-1.27-.39 2.93 2.93 0 0 1 1.2-.3 2.8 2.8 0 0 1 1.19.29 1.72 1.72 0 0 1-1.12.4zm5.22-5.75h-.11l-.09.08a1.81 1.81 0 0 1-1.52.43l-.29-.06.06.29a3.8 3.8 0 0 1 0 1.13 1.45 1.45 0 0 1-1 1.36L34 40v1.66a.35.35 0 0 1-.1.25.6.6 0 0 1-.51 0 3.76 3.76 0 0 0-1.59-.41 4 4 0 0 0-1.59.41c-.23.09-.41.11-.51 0a.33.33 0 0 1-.1-.24V40h-.14a1.47 1.47 0 0 1-1-1.36 3.8 3.8 0 0 1 0-1.13l.06-.29-.28.06a1.89 1.89 0 0 1-1.53-.43l-.09-.08h-.11c-1.66.65-2.57.22-3-.08a7.19 7.19 0 0 0 2.86-1.35l.26-.19-.28-.15s-2.9-1.4-2.9-4.25a4.24 4.24 0 0 1 1.38-3.43 3.12 3.12 0 0 1 .37-.32 3.48 3.48 0 0 0-.79 2.39 4.85 4.85 0 0 0 2.29 3.75 3.42 3.42 0 0 0 1.77.51 3.7 3.7 0 0 0 2.16-.78h.07a1.35 1.35 0 0 1 1 0h.14c.17-.06.74-.21 1 0h.07a3.38 3.38 0 0 0 3.93.27 4.82 4.82 0 0 0 2.29-3.75 3.48 3.48 0 0 0-.77-2.39l.36.27a4.26 4.26 0 0 1 1.39 3.45c0 2.84-2.86 4.23-2.9 4.25l-.29.14.26.19A7.26 7.26 0 0 0 40 36.65c-.36.35-1.27.73-2.93.08zm-5.34 8.72c.36 0 .89-1.26.91-1.61s-.09-.39-.3.09-.39.82-.69.8-.57-1.12-.82-1 .13.59.25.84.29.91.65.88zm-1.03-.18c-.27 0-.06 1.74.22 1.73s.08-1.69-.22-1.73zm.64 3.89c.16 0 .06-1.69-.22-1.72s-.06 1.73.22 1.72z"/><path d="M32.78 45.18c-.36 0-.55.53-.67 1S32 49.85 32 50.34s-.3.42-.34.27 0-.77-.29-.77-.26.09-.25.49.22 1.14.73 1.14.55-1.73.53-3.17a7.71 7.71 0 0 1 .26-2.41c0-.15.11 0 .33-.08s.17-.63-.19-.63zm-2.33 28.98l-.15-.09a2.31 2.31 0 0 0-.7-.24 7.31 7.31 0 0 0-1.11-.08h-4.07v.92h.07c.51 0 .76.12.76.35v4.58c0 .24-.25.36-.76.36h-.07v.91h3.93V80h-.07a2.3 2.3 0 0 1-.6-.06c-.29-.07-.37-.19-.37-.3v-1.45h1.18a4.75 4.75 0 0 0 1.12-.12 2.49 2.49 0 0 0 .56-.21 2 2 0 0 0 .28-.19 1.79 1.79 0 0 0 .53-.73 2.91 2.91 0 0 0 .18-1.08 2.59 2.59 0 0 0-.18-1 1.51 1.51 0 0 0-.53-.7zm-2.77.74h.37a1.32 1.32 0 0 1 .91.25 1 1 0 0 1 .25.71 1.39 1.39 0 0 1-.25.92 1.27 1.27 0 0 1-.91.26h-.37zm8.67 2.25v.92h.07c.51 0 .77.12.77.35v.46a.67.67 0 0 1-.11.37 1.12 1.12 0 0 1-.32.29 2.09 2.09 0 0 1-.48.19 2.28 2.28 0 0 1-.39.06h-.17a2.82 2.82 0 0 1-.74-.1 1.18 1.18 0 0 1-.56-.37 1.81 1.81 0 0 1-.37-.75 5.54 5.54 0 0 1-.13-1.28 3.57 3.57 0 0 1 .44-1.92 1.42 1.42 0 0 1 .75-.56 2.39 2.39 0 0 1 .69-.1h.2a1.51 1.51 0 0 1 .93.38 2 2 0 0 1 .56 1.1v.07h.36l.72-.07v-2.44h-1l-.1.24-.06.13v.06A2.36 2.36 0 0 0 37 74a3.17 3.17 0 0 0-.41-.17 3.81 3.81 0 0 0-1.08-.18h-.2a4.19 4.19 0 0 0-1.32.21 3 3 0 0 0-1.11.66 3.23 3.23 0 0 0-.77 1.16 5.27 5.27 0 0 0 0 3.42 3.21 3.21 0 0 0 .76 1.15 2.78 2.78 0 0 0 1.09.63 4 4 0 0 0 1.23.2h.2A5.07 5.07 0 0 0 36 81a4.05 4.05 0 0 0 .63-.17 1.69 1.69 0 0 0 .27-.13 1.32 1.32 0 0 0 .2-.12l.21-.18v.09l.05.14.1.28h1.29v-2.49c0-.16.12-.27.37-.32a2.25 2.25 0 0 1 .4 0h.07v-.92z"/><path d="M28.9 73.82a6.12 6.12 0 0 1 1.1.09 2 2 0 0 1 .81.31 1.52 1.52 0 0 1 .51.63 2.45 2.45 0 0 1 .17 1 2.75 2.75 0 0 1-.17 1 1.74 1.74 0 0 1-.51.7A2 2 0 0 1 30 78a4.66 4.66 0 0 1-1.1.11h-1.26v1.49c0 .29.35.43 1.05.43v.77H24.9V80c.56 0 .84-.14.84-.43V75c0-.28-.28-.43-.84-.43v-.77zm-1.26 1v2.29h.82a1.29 1.29 0 0 0 1-.29 1.42 1.42 0 0 0 .27-1 1 1 0 0 0-.27-.76 1.34 1.34 0 0 0-1-.27zm11.24 1.29l-1 .09a2.07 2.07 0 0 0-.58-1.14 1.63 1.63 0 0 0-1.15-.41 1.65 1.65 0 0 0-1.5.69 3.62 3.62 0 0 0-.45 2 5.21 5.21 0 0 0 .13 1.3 1.78 1.78 0 0 0 .38.78 1.23 1.23 0 0 0 .59.39 2.66 2.66 0 0 0 .77.1 2.22 2.22 0 0 0 .59-.07 1.8 1.8 0 0 0 .49-.2 1 1 0 0 0 .35-.31.73.73 0 0 0 .12-.41v-.46c0-.28-.28-.43-.84-.43v-.77h3.09V78c-.57 0-.85.15-.85.43v2.37h-1.11l-.2-.58a1.26 1.26 0 0 1-.29.26 1.89 1.89 0 0 1-.45.24 3.91 3.91 0 0 1-.62.17 4.58 4.58 0 0 1-.78.06 3.83 3.83 0 0 1-1.21-.19 2.75 2.75 0 0 1-1.06-.61 3.1 3.1 0 0 1-.75-1.15 4.78 4.78 0 0 1-.28-1.71 4.54 4.54 0 0 1 .28-1.66 3 3 0 0 1 .75-1.12 2.81 2.81 0 0 1 1.09-.65 4 4 0 0 1 1.29-.21 3.8 3.8 0 0 1 1.25.18 2.07 2.07 0 0 1 .82.45l.2-.48h.93z" fill="#fff"/><path d="M29.43 75.05a1.37 1.37 0 0 0-1-.3h-.89v2.44h.89a1.33 1.33 0 0 0 1-.31 1.45 1.45 0 0 0 .3-1 1.08 1.08 0 0 0-.3-.83zm-.11 1.73a.92.92 0 0 1-.38.21l-.35.05h-.91V74.9h.93a1.73 1.73 0 0 1 .39.1.86.86 0 0 1 .37.19 1 1 0 0 1 .25.71 1.33 1.33 0 0 1-.3.88zm.11-1.73a1.37 1.37 0 0 0-1-.3h-.89v2.44h.89a1.33 1.33 0 0 0 1-.31 1.45 1.45 0 0 0 .3-1 1.08 1.08 0 0 0-.3-.83zm-.11 1.73a.92.92 0 0 1-.38.21l-.35.05h-.91V74.9h.93a1.73 1.73 0 0 1 .39.1.86.86 0 0 1 .37.19 1 1 0 0 1 .25.71 1.33 1.33 0 0 1-.3.88zm.11-1.73a1.37 1.37 0 0 0-1-.3h-.89v2.44h.89a1.33 1.33 0 0 0 1-.31 1.45 1.45 0 0 0 .3-1 1.08 1.08 0 0 0-.3-.83zm-.11 1.73a.92.92 0 0 1-.38.21l-.35.05h-.91V74.9h.93a1.73 1.73 0 0 1 .39.1.86.86 0 0 1 .37.19 1 1 0 0 1 .25.71 1.33 1.33 0 0 1-.3.88zm.11-1.73a1.37 1.37 0 0 0-1-.3h-.89v2.44h.89a1.33 1.33 0 0 0 1-.31 1.45 1.45 0 0 0 .3-1 1.08 1.08 0 0 0-.3-.83zm-.11 1.73a.92.92 0 0 1-.38.21l-.35.05h-.91V74.9h.93a1.73 1.73 0 0 1 .39.1.86.86 0 0 1 .37.19 1 1 0 0 1 .25.71 1.33 1.33 0 0 1-.3.88zm2-2a1.51 1.51 0 0 0-.53-.66 2.22 2.22 0 0 0-.85-.33 7.41 7.41 0 0 0-1.11-.08h-4.04v.92H25c.43 0 .64.14.64.35v4.62c0 .22-.21.34-.64.35h-.19v.91h3.93V80h-.07c-.8 0-1-.2-1-.36v-1.45h1.18a4.66 4.66 0 0 0 1.15-.12 2.23 2.23 0 0 0 .85-.4 1.79 1.79 0 0 0 .53-.73 2.91 2.91 0 0 0 .18-1.08 2.59 2.59 0 0 0-.21-1.04zm-.14 2.06a1.58 1.58 0 0 1-.48.67 2 2 0 0 1-.56.31l-.23.07a3 3 0 0 1-.45.07 4.17 4.17 0 0 1-.63 0h-1.3v1.64a.37.37 0 0 0 .15.3.71.71 0 0 0 .23.12 1.59 1.59 0 0 0 .3.06h.36v.63h-3.63v-.61c.55 0 .83-.18.83-.5V75c0-.32-.28-.49-.83-.5v-.6h3.92a7.39 7.39 0 0 1 .84 0h.24a1.9 1.9 0 0 1 .36.09 2.15 2.15 0 0 1 .43.21 1.43 1.43 0 0 1 .48.6 2.46 2.46 0 0 1 .17 1 2.75 2.75 0 0 1-.17 1.08zm-2.79-2.13h-.89v2.44h.89a1.33 1.33 0 0 0 1-.31 1.45 1.45 0 0 0 .3-1 1.08 1.08 0 0 0-.3-.81 1.37 1.37 0 0 0-.97-.28zm.9 2a.92.92 0 0 1-.38.21l-.35.05h-.91V74.9h.93a1.73 1.73 0 0 1 .42.1.86.86 0 0 1 .37.19 1 1 0 0 1 .25.71 1.33 1.33 0 0 1-.3.88zm.11-1.73a1.37 1.37 0 0 0-1-.3h-.89v2.44h.89a1.33 1.33 0 0 0 1-.31 1.45 1.45 0 0 0 .3-1 1.08 1.08 0 0 0-.27-.76zm-.11 1.73a.92.92 0 0 1-.38.21l-.35.05h-.91V74.9h.93a1.73 1.73 0 0 1 .42.1.86.86 0 0 1 .37.19 1 1 0 0 1 .25.71 1.33 1.33 0 0 1-.3.88zm.11-1.73a1.37 1.37 0 0 0-1-.3h-.89v2.44h.89a1.33 1.33 0 0 0 1-.31 1.45 1.45 0 0 0 .3-1 1.08 1.08 0 0 0-.27-.76zm-.11 1.73a.92.92 0 0 1-.38.21l-.35.05h-.91V74.9h.93a1.73 1.73 0 0 1 .42.1.86.86 0 0 1 .37.19 1 1 0 0 1 .25.71 1.33 1.33 0 0 1-.3.88zm.11-1.73a1.37 1.37 0 0 0-1-.3h-.89v2.44h.89a1.33 1.33 0 0 0 1-.31 1.45 1.45 0 0 0 .3-1 1.08 1.08 0 0 0-.27-.76zm-.11 1.73a.92.92 0 0 1-.38.21l-.35.05h-.91V74.9h.93a1.73 1.73 0 0 1 .42.1.86.86 0 0 1 .37.19 1 1 0 0 1 .25.71 1.33 1.33 0 0 1-.3.88zm.11-1.73a1.37 1.37 0 0 0-1-.3h-.89v2.44h.89a1.33 1.33 0 0 0 1-.31 1.45 1.45 0 0 0 .3-1 1.08 1.08 0 0 0-.27-.76zm-.11 1.73a.92.92 0 0 1-.38.21l-.35.05h-.91V74.9h.93a1.73 1.73 0 0 1 .42.1.86.86 0 0 1 .37.19 1 1 0 0 1 .25.71 1.33 1.33 0 0 1-.3.88zm7.42.44v.92h.08c.51 0 .77.12.77.35v.46a.67.67 0 0 1-.11.37 1.12 1.12 0 0 1-.32.29 2.09 2.09 0 0 1-.48.19 2.62 2.62 0 0 1-.57.07h-.19a2.26 2.26 0 0 1-.55-.09 1.26 1.26 0 0 1-.57-.37 1.81 1.81 0 0 1-.36-.75 5 5 0 0 1-.13-1.28 3.57 3.57 0 0 1 .44-1.92 1.52 1.52 0 0 1 1.28-.66h.2a1.56 1.56 0 0 1 1.1.39 2 2 0 0 1 .55 1.1v.07l1.08-.1v-2.44h-1l-.19.43a1.38 1.38 0 0 0-.34-.18 3.48 3.48 0 0 0-.48-.21 4 4 0 0 0-1.28-.18h-.17a4.49 4.49 0 0 0-1.15.21 3 3 0 0 0-1.11.66 3.23 3.23 0 0 0-.77 1.16 4.44 4.44 0 0 0-.28 1.68 4.69 4.69 0 0 0 .29 1.74 3.21 3.21 0 0 0 .76 1.15 2.78 2.78 0 0 0 1.09.63 3.81 3.81 0 0 0 1.06.19h.17a4.86 4.86 0 0 0 .8-.07 4.05 4.05 0 0 0 .63-.17 2.36 2.36 0 0 0 .39-.2h.08l.21-.18.18.51h1.29v-2.5c0-.23.26-.35.77-.35H40v-.92zm3.09.77h-.22a1 1 0 0 0-.47.17.39.39 0 0 0-.15.32v2.31h-1l-.22-.67-.09.11a1.11 1.11 0 0 1-.27.25 2.36 2.36 0 0 1-.39.2 3.47 3.47 0 0 1-.56.15 4.49 4.49 0 0 1-.77.07 4.05 4.05 0 0 1-1.19-.19 2.69 2.69 0 0 1-1-.6 3 3 0 0 1-.73-1.1 4.58 4.58 0 0 1-.27-1.68 4.38 4.38 0 0 1 .27-1.63 3.07 3.07 0 0 1 .73-1.1 2.85 2.85 0 0 1 .9-.53 4.12 4.12 0 0 1 1.27-.2 3.73 3.73 0 0 1 1.23.17L37 74a2.7 2.7 0 0 1 .38.17 1.57 1.57 0 0 1 .32.24l.08.07.22-.58h.8v2.15h-.22l-.59.05a2.09 2.09 0 0 0-.63-1.1 1.7 1.7 0 0 0-1.2-.42 2.13 2.13 0 0 0-1.06.24 1.56 1.56 0 0 0-.51.48 3.77 3.77 0 0 0-.46 2 5.33 5.33 0 0 0 .14 1.32 2 2 0 0 0 .39.81 1.35 1.35 0 0 0 .32.27 1.23 1.23 0 0 0 .31.14 2.85 2.85 0 0 0 .79.11 2.4 2.4 0 0 0 1.12-.28 1.19 1.19 0 0 0 .37-.33.83.83 0 0 0 .14-.46v-.46c0-.32-.29-.49-.85-.5v-.62h2.94z"/></svg>