<svg id="adb86f37-ab81-40be-b56a-811fa0938bb6" data-name="Layer 1" xmlns="http://www.w3.org/2000/svg" width="170" height="110"><defs><style>.a2c11480-e930-4092-af95-6f9fc3435069{fill:#fff}</style></defs><path fill="#ee489a" d="M0 0h170v110H0z"/><path class="a2c11480-e930-4092-af95-6f9fc3435069" d="M71.22 59.73C76.3 52.4 83.48 40.82 90 34.69s13.56-8.44 16.59-7.84c6.2 1.22 12.26 4.78 12.33 4.55s5.75-9-2.77-15.32S96.79 19.33 94 21.61C89.31 25.5 81.91 35.29 74.73 45c-6.87 9.31-11 12.77-15.09 12.1s-6-7.62-3.51-14.72c2.95-8.51 4.33-11.73 3.88-12.85s-5.6 5.3-8.82 14.87c-2.56 7.64-3.28 20.38 3 24 5.45 3.14 11.95-1.35 17.03-8.67z"/><path class="a2c11480-e930-4092-af95-6f9fc3435069" d="M90.72 63.54c3.08-4.44 7.44-11.46 11.38-15.17s8.23-5.12 10.07-4.76c3.77.74 7.44 2.9 7.49 2.76s3.49-5.48-1.68-9.28-11.74 2-13.43 3.35c-2.85 2.36-7.35 8.29-11.7 14.18-4.17 5.64-6.67 7.74-9.16 7.34s-3.63-4.62-2.13-8.96c1.79-5.15 2.63-7.11 2.36-7.79s-3.41 3.22-5.36 9c-1.55 4.63-2 12.35 1.82 14.54 3.31 1.95 7.25-.75 10.34-5.21z"/><path class="a2c11480-e930-4092-af95-6f9fc3435069" d="M109.65 57.2c2.35-2.16 4.91-3 6-2.76a24.52 24.52 0 0 1 4.47 1.6c0-.08 2.08-3.19-1-5.39s-7 1.14-8 1.94c-1.7 1.37-4.38 4.82-7 8.23s-4 4.5-5.47 4.26-2.17-2.68-1.28-5.18c1.08-3 1.57-4.12 1.41-4.52s-2 1.87-3.19 5.23c-.93 2.69-1.19 7.17 1.08 8.44 2 1.11 4.33-.47 6.17-3s4.45-6.7 6.81-8.85zM35.33 83.32H23.77c-.36 0-3.31 2.08-3.31 4.34v6.77a1.7 1.7 0 0 0 3.38.08v-5.94a1.18 1.18 0 0 1 1-1.27H38c0-1.7-2.09-3.98-2.67-3.98zm71.3 0a8.1 8.1 0 0 0-3.18 6.35 7.8 7.8 0 0 0 3.12 6.24h15V83.32zm11.11 8.5h-10.39a4.69 4.69 0 0 1-.63-2.29 4.16 4.16 0 0 1 .76-2.3h10.26zM43 83.32a8.1 8.1 0 0 0-3.18 6.35 7.8 7.8 0 0 0 3.12 6.24h15V83.32zm11.11 8.5H43.68a4.69 4.69 0 0 1-.63-2.29 4.16 4.16 0 0 1 .76-2.3h10.26zm22.19-8.5H64.57v-4.57a1.62 1.62 0 1 0-3.23 0v12.37c0 2.76 2.86 4.8 2.86 4.8h11.94a8.13 8.13 0 0 0 3.19-6.39 7.65 7.65 0 0 0-3.03-6.21zm-.89 8.5H65.24a3.29 3.29 0 0 1-.71-2.2 4.21 4.21 0 0 1 .71-2.39h10.28a5.34 5.34 0 0 1 .6 2.3 4.74 4.74 0 0 1-.71 2.29zm21.89-8.5H85.57v-4.57a1.62 1.62 0 1 0-3.23 0v12.37c0 2.76 2.86 4.8 2.86 4.8h11.93a8.12 8.12 0 0 0 3.2-6.39 7.65 7.65 0 0 0-3.03-6.21zm-.9 8.5H86.24a3.29 3.29 0 0 1-.71-2.2 4.21 4.21 0 0 1 .71-2.39h10.28a5.34 5.34 0 0 1 .6 2.3 4.69 4.69 0 0 1-.72 2.29z"/><rect class="a2c11480-e930-4092-af95-6f9fc3435069" x="146.18" y="82.87" width="3.36" height="12.8" rx="1.68"/><circle class="a2c11480-e930-4092-af95-6f9fc3435069" cx="147.86" cy="79.1" r="1.68"/><path class="a2c11480-e930-4092-af95-6f9fc3435069" d="M140 83.32h-11.86c-.35 0-3 2.38-3 4v6.88a1.47 1.47 0 0 0 1.48 1.47h.38a1.47 1.47 0 0 0 1.48-1.47V88a1.34 1.34 0 0 1 1.07-.73h8.91a1.37 1.37 0 0 1 1.08.73v6.2a1.47 1.47 0 0 0 1.47 1.47h.41a1.47 1.47 0 0 0 1.48-1.47v-6.89c.1-1.6-2.59-3.99-2.9-3.99z"/></svg>