<svg id="a404f4a0-109f-4609-b5ae-c30c81326ee1" data-name="Layer 1" xmlns="http://www.w3.org/2000/svg" width="170" height="110"><defs><style>.bf9337d2-35ea-4ce6-8a34-14788dc31595{fill:#fff}.e1b41fdd-cdcc-44ec-816b-810bc036488b{fill:#f1f01a}</style></defs><path fill="#e91b24" d="M0 0h170v110H0z"/><path class="bf9337d2-35ea-4ce6-8a34-14788dc31595" d="M47.73 54.15S42.26 58.3 36 55.6s-8.63-8.54-8.63-14.35c0 0 6.43-3.65 6.72-9.91s-8.34-7.09-12-7.26-14 .91-14 .91l.16 9.75s6.06-4.48 7.47-3.61-3.61 14.1-7.63 19.29l7.13 4.39A64.57 64.57 0 0 0 20.61 44s2 13.6 12.48 17.38 19.58-1.91 19.58-1.91zM21.56 38.51c.5-4.25.5-7 .58-8.5 0 0 4.4-.41 5.11 1.83s-3.57 5.97-5.69 6.67z"/><path class="bf9337d2-35ea-4ce6-8a34-14788dc31595" d="M35.83 35.49L43 33.08s-.92 7.22-1.75 11-2.15 8.79-2.15 8.79h-6s1.46-2.29 2.41-8.42a36.08 36.08 0 0 0 .32-8.96zm18.83 6.09a2.37 2.37 0 0 0-2.32-2c-2 0-4.52 2.61-4.9 4.19s-.29 4.07 3 4.11S55 46.64 55 46.64l2.2 3.11s-2.44 2.91-8.42 2.91-7.25-4.9-6.3-9.71 5.93-10.33 11.36-10.33 6.35 3.74 6.35 3.74zm6.93-13.06c.29 3.94-2.28 21.32-3.36 24.14h5.14s2.12-7.84 2.63-10.75c0 0 2.49-3.27 4.28-2.11s.16 10-1.54 12.86h5.6a43.77 43.77 0 0 0 2.7-11c.37-5.22-1.62-7.79-4.07-7.79a9.6 9.6 0 0 0-5.31 1.66s1.7-5.85 1.74-9.42zm26 19.62a3.69 3.69 0 0 1-4.48 0l11.37-8.26s-2.12-5.64-7.8-5.43-8.86 4.72-9.33 10.45a7.13 7.13 0 0 0 8 7.76 11 11 0 0 0 8.75-7.14l-3-2s-1.68 3.55-3.51 4.62zm-3.52-8.59c3.23-1.62 4.31.25 4.31.25l-6.88 4.77a4.73 4.73 0 0 1 2.57-5.02zm21.27 8.59a3.69 3.69 0 0 1-4.48 0l11.37-8.26s-2.12-5.64-7.8-5.43-8.86 4.72-9.33 10.45a7.13 7.13 0 0 0 8 7.76 11 11 0 0 0 8.75-7.14l-3-2s-1.68 3.55-3.51 4.62zm-3.52-8.59c3.23-1.62 4.31.25 4.31.25l-6.88 4.77a4.73 4.73 0 0 1 2.57-5.02zm35.04 8.59a3.69 3.69 0 0 1-4.48 0l11.37-8.26s-2.12-5.64-7.8-5.43-8.86 4.72-9.33 10.45a7.13 7.13 0 0 0 8 7.76 11 11 0 0 0 8.75-7.14l-3-2s-1.68 3.55-3.51 4.62zm-3.52-8.59c3.23-1.62 4.31.25 4.31.25l-6.88 4.77a4.73 4.73 0 0 1 2.57-5.02z"/><path class="bf9337d2-35ea-4ce6-8a34-14788dc31595" d="M124.21 43l3.4-6.18s-2.36-2-7.34-2-7.59 2.74-7.54 5.85 5.1 5.85 6.47 6.68.62 2.28-1.46 1.82-4.74-3.65-4.74-3.65l-2.19 5.15s1.61 2.06 7.34 2.06S126 50 126 47.64c0-1.54-1.41-3.65-4-5.23s-4.64-2.86-4.64-3.69.7-1.66 2.32-.66a20.16 20.16 0 0 1 4.53 4.94zM41.76 31.56c2.37-1.8 2.93-5.2.22-5.81s-5 1.66-5.8 3.76-.06 3.43 1.16 3.57a6.39 6.39 0 0 0 4.42-1.52zm10.91 24.72l6.07 6.38S71.58 59 95.8 58.26s45.46-1.87 45.63-2.7c.24-1.21-59.43-.89-88.76.72z"/><path class="e1b41fdd-cdcc-44ec-816b-810bc036488b" d="M126.48 71.86c.69-.23 1.78.06 2.13-.27a5.77 5.77 0 0 0 1.22-1.89c0-.33-2.32-.16-2.32-.16s1.81-3.13 2-3.72-.37-2.28-1-2.38-4.13 6-4.79 6.26a5.36 5.36 0 0 1-2.16.11c-.49-.08-.24-.86-.41-.77a3.25 3.25 0 0 0-1.25 2.2c-.23 1.53 2.18.87 2.3 1.1s-1.76 3.73-2.2 4.66-.89 2.47 0 3 1 1.87 2.31 1.41 2.24-1.49 1.9-1.81-1.53.77-1.82.44.27-2 1.41-3.88c1.27-2.07 2.34-4.16 2.68-4.3zm-8.78-.58c-.46-.55-3.09 1.41-4.79 3.48s-2.22 3.92-1.57 4.59 2.84-.38 4.48-1.46 1.53-1 1.59-.51.73 1.3 0 2-2.82 2.82-5.16 2.63-5.7-2-3.26-7.11 6.54-5.85 7.68-5.71a2.8 2.8 0 0 1 2.65 2.66 4.15 4.15 0 0 1-2.09 3.23c-.42.19-2.62.19-1.68-.54s2.63-2.7 2.15-3.26z"/><path class="e1b41fdd-cdcc-44ec-816b-810bc036488b" d="M109.74 71.82c.46-.77.45-1.2-.5-1.5s-1.93.83-2.24.9-.34-.59-.58-1.14c-.41-1-2.13-1.89-5.25-.11a14 14 0 0 0-6.13 8c-.79 2.82 1.28 3.17 1.72 3.35s.39 1.13 2 .83 3.59-3.54 4-3.46.29.25.06 1.29.13 1.57.75 1.76.77 1 1.2.89 2.35-2 2.22-2.28-.43 0-1 .44-.83-.13-.65-.69 3.94-7.52 4.4-8.28zm-11.66 8c-.4.25-.37-.43-.27-.78a8.51 8.51 0 0 1 2-3.47c.71-.76 5-5.29 6-3.71s-5.74 6.73-7.73 7.96zM145 74.33s-2.57 3.78-3.57 5.22-1.76 2.5-2.43 2.45-.45-.77-1.26-1.15-1.47-.9-.52-2.65 3.65-7.33 3.17-8-1.54.53-1.93.48-.09-.52.74-1.11 1.65-1.49 2.42-.93c.55.39 1.58.92 1.44 2.24s-.61 2.88-.58 3.13 2.07-2.6 3-3.62 1.63-1.8 2.49-1.11 1.71.77 1.08 2.35-1.49 4.26-1.74 5-2 .74-2.27 0 .37-2.17-.04-2.3zm8.83-1.57c-2.33 3.54-2.83 5.24-2.55 5.36s4.87-4.37 6.47-6.3 2.21-2.49 2.8-1.94 1.6.69 1.18 2.41a52.3 52.3 0 0 1-5.06 10.92c-2.21 3.46-4 5.83-6.33 5.7-1.46-.09-3-1-2.62-2.88s1.3-1.36 1.27-.72.27 1.83 1.08 1a51.88 51.88 0 0 0 5.5-8.07s-3.21 3.85-4.84 3.22-1.19-.82-2.32-1.31-.75-4.36 1.57-7.72 3.27-3.87 4.21-3.43 1.16.14 1.54.44-1.9 3.32-1.9 3.32z"/><path class="e1b41fdd-cdcc-44ec-816b-810bc036488b" d="M137.15 71c.14-1.19-.38-1.91-2-2s-3.84.19-7.13 4.09-1.27 7.24-.64 7.49 1.63.11 2 .55 2.05 1.41 4.65-.61a11.12 11.12 0 0 0 4.14-5.61c.62-1.79.45-3.09-1.02-3.91zm-3.31 5.61c-1.91 2.39-3.68 3.17-4.32 2.82s-.05-2.68 1.3-4.48 3.56-3.54 4.2-3.4c.36.09-.33.81-.55 1.08s.36 0 1 .25.11 1.51-1.63 3.69zm-42.2-2.83c.36-.14 4.32 0 5-.72s1.3-2.13 1.55-2.35.4-.55-.39-.52-3.7 0-3.7 0a19.75 19.75 0 0 0 1.46-3.12c-.08-.27-.71-.66-.52-.74s7.38-.36 8.54-1.69 1.85-2.49 1.08-2.55-12 .39-12.28.2 0-.78-.44-.64-1.71.91-1.77 2.08a2.46 2.46 0 0 0 1.61 2.65 39.46 39.46 0 0 1-2.44 3.93c-.25 0-2.32 0-3.29 1.23s0 2 1.16 2.25c0 0-1.57 4.12-2 4.65a2 2 0 0 0 .65 2.56c1 .83 1.16 1.66 1.86 1.41A2.78 2.78 0 0 0 89 79.87a1.87 1.87 0 0 1 .19-1.44c.19-.61 2.45-4.65 2.45-4.65z"/></svg>