<svg width="24" height="24" viewBox="0 0 24 24" fill="none" xmlns="http://www.w3.org/2000/svg">
<path d="M0 12C0 5.37258 5.37258 0 12 0C18.6274 0 24 5.37258 24 12C24 18.6274 18.6274 24 12 24C5.37258 24 0 18.6274 0 12Z" fill="#007BFF"/>
<path d="M12.0228 6C12.8215 6 13.5874 6.31687 14.1522 6.88091C14.7169 7.44494 15.0342 8.20994 15.0342 9.00761C15.0342 9.80528 14.7169 10.5703 14.1522 11.1343C13.5874 11.6983 12.8215 12.0152 12.0228 12.0152C11.2241 12.0152 10.4582 11.6983 9.89343 11.1343C9.32868 10.5703 9.01141 9.80528 9.01141 9.00761C9.01141 8.20994 9.32868 7.44494 9.89343 6.88091C10.4582 6.31687 11.2241 6 12.0228 6ZM12.0228 17.9849C12.0228 17.9849 18 17.9849 18 16.4811C18 14.9773 15.0798 12.7443 12.0228 12.7443C8.96578 12.7443 6 14.7038 6 16.4811C6 18.2583 12.0228 17.9849 12.0228 17.9849Z" fill="white"/>
</svg>
