<svg width="20" height="20" viewBox="0 0 20 20" fill="none" xmlns="http://www.w3.org/2000/svg">
<path d="M0 10C0 4.47715 4.47715 0 10 0C15.5228 0 20 4.47715 20 10C20 15.5228 15.5228 20 10 20C4.47715 20 0 15.5228 0 10Z" fill="#007BFF"/>
<path d="M10.019 5C10.6846 5 11.3229 5.26406 11.7935 5.73409C12.2641 6.20412 12.5285 6.84162 12.5285 7.50634C12.5285 8.17107 12.2641 8.80856 11.7935 9.27859C11.3229 9.74862 10.6846 10.0127 10.019 10.0127C9.35345 10.0127 8.71515 9.74862 8.24452 9.27859C7.7739 8.80856 7.50951 8.17107 7.50951 7.50634C7.50951 6.84162 7.7739 6.20412 8.24452 5.73409C8.71515 5.26406 9.35345 5 10.019 5ZM10.019 14.9874C10.019 14.9874 15 14.9874 15 13.7342C15 12.481 12.5665 10.6203 10.019 10.6203C7.47148 10.6203 5 12.2532 5 13.7342C5 15.2152 10.019 14.9874 10.019 14.9874Z" fill="white"/>
</svg>
