<svg width="18" height="18" fill="none" xmlns="http://www.w3.org/2000/svg"><path d="M9.059 17.117a7.392 7.392 0 1 0 0-14.784 7.392 7.392 0 0 0 0 14.784z" fill="#ACD3F7"/><mask id="a" maskUnits="userSpaceOnUse" x="1" y="2" width="16" height="16"><path d="M9.059 17.117a7.392 7.392 0 1 0 0-14.784 7.392 7.392 0 0 0 0 14.784z" fill="#ACD3F7"/></mask><g mask="url(#a)"><path d="M6.667 10.666a1 1 0 0 1 1-1H16a1 1 0 0 1 1 1v4a1 1 0 0 1-1 1H7.667a1 1 0 0 1-1-1v-4z" fill="#EEF6FF"/></g><path d="M4 8.666a1 1 0 0 1 1-1h8.333a1 1 0 0 1 1 1v4a1 1 0 0 1-1 1H5a1 1 0 0 1-1-1v-4z" fill="#007AFF"/><path d="M8.823 9.131a1.55 1.55 0 0 0-1.506.144 1.659 1.659 0 0 0-.27.232l-1.115 1.185a.991.991 0 0 0-.265.679c0 .526.408.96.903.96l.033-.001a.721.721 0 0 1-.444-.676c0-.197.076-.386.21-.522l.932-.99.1-.106.033-.035.038-.041a2.041 2.041 0 0 1 1.713-.608 1.598 1.598 0 0 0-.362-.22zm3.778.468c-.186-.487-.717-.726-1.176-.528l-.012.005a.875.875 0 0 0-.287.205l-.682.726-.099.104-.009.009a.29.29 0 0 1-.416-.01l-.524-.555c-.391-.1-.802-.07-1.177.085.266.005.52.12.707.32l.905.961a.411.411 0 0 0 .603 0l1.117-1.187a.655.655 0 0 1 .476-.205c.286 0 .543.193.639.48l.001-.048a1.01 1.01 0 0 0-.066-.362zm-.574.09a.494.494 0 0 0-.09.009c.014.01.027.023.04.036a.33.33 0 0 1 .088.226.33.33 0 0 1-.088.226l-1.11 1.18-.007.008-.06.06a2.044 2.044 0 0 1-1.643.557 1.557 1.557 0 0 0 1.671.177c.17-.085.325-.2.457-.341l1.083-1.151.035-.037a.582.582 0 0 0 .151-.39c0-.306-.238-.56-.527-.56zm-1.905 2.005a.997.997 0 0 1-.717-.32l-.9-.957a.421.421 0 0 0-.305-.137.412.412 0 0 0-.303.132l-.265.283-.112.119-.26.276-.108.114-.178.19-.159.169-.031.034a.292.292 0 0 1-.213.094.292.292 0 0 1-.251-.143.594.594 0 0 0-.01.105c0 .307.238.56.527.56a.509.509 0 0 0 .358-.15l.007-.006.007-.008.01-.01.293-.311.476-.507a.29.29 0 0 1 .424.003l.533.566c.392.096.803.063 1.177-.096z" fill="#EEF6FF"/><path d="M12 3.667a3 3 0 1 1-6 0 3 3 0 0 1 6 0z" fill="#FF9800"/><path d="M8.303 3.292a.562.562 0 1 1 .001-1.124.562.562 0 0 1-.001 1.124zm0-.748a.187.187 0 1 0 0 .374.187.187 0 0 0 0-.374zM9.8 5.164A.562.562 0 1 1 9.8 4.04.562.562 0 0 1 9.8 5.164zm0-.749a.188.188 0 0 0-.187.187c0 .103.084.188.187.188a.188.188 0 0 0 .187-.188.188.188 0 0 0-.187-.187zM7.76 4.87a.187.187 0 0 1-.07-.325L10.176 2.5a.187.187 0 1 1 .238.289L7.928 4.834a.188.188 0 0 1-.168.036z" fill="#EEF6FF"/><path d="M3.495 5.677L2.38 4.479l-.432 1.406 1.547-.208zM15.87 2.864l-1.115-1.197-.432 1.406 1.547-.209z" fill="#FF9800"/><path d="M15.73 5.885a.562.562 0 1 1-1.125 0 .562.562 0 0 1 1.124 0zM4.48 3.073a.563.563 0 1 1-1.126 0 .563.563 0 0 1 1.125 0z" fill="#22273C"/></svg>