<svg width="18" height="18" fill="none" xmlns="http://www.w3.org/2000/svg"><path d="M9.08 17.438a7.392 7.392 0 1 0 0-14.784 7.392 7.392 0 0 0 0 14.784z" fill="#ACD3F7"/><path fill-rule="evenodd" clip-rule="evenodd" d="M9.067 17.438h.024a7.393 7.393 0 0 0 6.659-4.203v-1.563c0-.7-.567-1.266-1.266-1.266H3.516c-.7 0-1.266.567-1.266 1.266v1.207a7.394 7.394 0 0 0 6.817 4.559z" fill="#007AFF"/><path fill-rule="evenodd" clip-rule="evenodd" d="M14.063 15.505a7.365 7.365 0 0 1-4.972 1.932h-.024a7.368 7.368 0 0 1-5.13-2.08V8.858c0-.699.567-1.265 1.266-1.265h7.594c.699 0 1.265.566 1.265 1.265v6.646z" fill="#EEF6FF"/><path d="M11.825 12.805h-5.65c-.134 0-.269-.132-.269-.264 0-.133.135-.265.27-.265h5.649c.134 0 .269.132.269.265 0 .132-.067.264-.27.264zM11.825 14.063h-5.65c-.134 0-.269-.133-.269-.265s.135-.265.27-.265h5.649c.134 0 .269.133.269.265s-.067.265-.27.265zM7.534 9.844h.307l-.445 1.224H7.14l-.264-.734-.266.734h-.26l-.443-1.224h.33l.258.776.28-.776h.223l.267.79.27-.79zM9.654 9.844h.308l-.445 1.224h-.258l-.263-.734-.267.734h-.26l-.442-1.224h.33l.258.776.279-.776h.224l.266.79.27-.79zM11.775 9.844h.307l-.445 1.224h-.258l-.263-.734-.266.734h-.26l-.443-1.224h.33l.258.776.279-.776h.224l.267.79.27-.79z" fill="#22273C"/><path d="M3.516 5.98L2.4 4.78 1.97 6.188l1.547-.209zM15.89 3.167l-1.115-1.198-.431 1.406 1.547-.208z" fill="#FF9800"/><path d="M15.459 5.896a.562.562 0 1 1-1.125 0 .562.562 0 0 1 1.125 0zM4.5 3.375a.563.563 0 1 1-1.125 0 .563.563 0 0 1 1.125 0z" fill="#22273C"/><path d="M12.094 3.516a2.953 2.953 0 1 1-5.907 0 2.953 2.953 0 0 1 5.907 0z" fill="#FF9800"/><path d="M7.719 4.719V2.53h.595V4.72h-.595zM8.856 2.531h.928c.252 0 .469.044.65.13a.94.94 0 0 1 .42.38c.098.163.146.357.146.582 0 .228-.049.425-.146.59a.927.927 0 0 1-.417.375 1.5 1.5 0 0 1-.653.13h-.928V2.532zm.886 1.729c.224 0 .391-.053.501-.159.11-.105.165-.264.165-.478 0-.213-.055-.37-.165-.474-.11-.106-.277-.159-.501-.159H9.45v1.27h.29z" fill="#EEF6FF"/></svg>