<svg width="60" height="60" viewBox="0 0 60 60" fill="none" xmlns="http://www.w3.org/2000/svg">
<path d="M30 27.9187C30.9158 27.9211 31.823 27.7423 32.6693 27.3924C33.5156 27.0425 34.2843 26.5286 34.931 25.8801C35.5777 25.2317 36.0896 24.4616 36.4372 23.6144C36.7848 22.7671 36.9612 21.8594 36.9563 20.9437C36.8479 18.3703 35.8921 15.905 34.2375 13.9312C33.6538 13.2662 33.0275 12.6399 32.3625 12.0562C32.1188 11.8312 31.9125 11.6437 31.7625 11.5312C31.7111 11.4687 31.6473 11.4176 31.575 11.3812C31.3653 11.1886 31.1145 11.0463 30.8416 10.965C30.5687 10.8838 30.2809 10.8658 30 10.9124C29.7373 10.991 29.4968 11.1304 29.2981 11.3194C29.0993 11.5083 28.948 11.7415 28.8563 11.9999L27.5813 15.5062L27.2063 15.2249C27.0164 15.079 26.7986 14.9737 26.5664 14.9157C26.3341 14.8576 26.0924 14.848 25.8562 14.8874C25.3745 14.9849 24.9503 15.2677 24.675 15.6749C23.6308 17.2376 23.0521 19.0648 23.0062 20.9437C23.0013 21.8626 23.1789 22.7734 23.5288 23.6231C23.8787 24.4728 24.394 25.2446 25.0447 25.8935C25.6954 26.5424 26.4685 27.0556 27.3191 27.4033C28.1698 27.7509 29.0811 27.9261 30 27.9187ZM26.8125 19.2749L27.375 19.7062C27.5897 19.8583 27.836 19.96 28.0955 20.0034C28.355 20.0469 28.621 20.031 28.8735 19.9571C29.1261 19.8831 29.3586 19.753 29.5537 19.5764C29.7488 19.3998 29.9013 19.1813 30 18.9374L31.1625 15.7499L31.425 16.0874C32.5995 17.446 33.2975 19.1514 33.4125 20.9437C33.4125 21.8686 33.0451 22.7557 32.391 23.4097C31.737 24.0637 30.8499 24.4312 29.925 24.4312C29.0001 24.4312 28.113 24.0637 27.459 23.4097C26.8049 22.7557 26.4375 21.8686 26.4375 20.9437C26.4701 20.3706 26.5968 19.8068 26.8125 19.2749Z" fill="#007AFF"/>
<path d="M44.7937 24.7687C44.3313 24.7687 43.8877 24.9525 43.5607 25.2795C43.2337 25.6065 43.05 26.05 43.05 26.5125C43.05 26.975 43.2337 27.4185 43.5607 27.7455C43.8877 28.0725 44.3313 28.2562 44.7937 28.2562H50.8875V33.4875H36.0938C35.8508 33.4622 35.6053 33.4882 35.3731 33.5639C35.1409 33.6395 34.9272 33.7631 34.7457 33.9266C34.5643 34.0901 34.4193 34.2899 34.32 34.513C34.2207 34.7361 34.1694 34.9776 34.1694 35.2219C34.1694 35.4661 34.2207 35.7076 34.32 35.9307C34.4193 36.1539 34.5643 36.3536 34.7457 36.5171C34.9272 36.6807 35.1409 36.8042 35.3731 36.8799C35.6053 36.9555 35.8508 36.9815 36.0938 36.9562H40.4437V42.1875H19.5563V36.9562H23.0438C23.4726 36.9116 23.8698 36.7096 24.1585 36.3893C24.4472 36.069 24.6069 35.6531 24.6069 35.2219C24.6069 34.7907 24.4472 34.3747 24.1585 34.0544C23.8698 33.7341 23.4726 33.5321 23.0438 33.4875H9.1125V28.2562H15.2062C15.6687 28.2562 16.1123 28.0725 16.4393 27.7455C16.7663 27.4185 16.95 26.975 16.95 26.5125C16.95 26.05 16.7663 25.6065 16.4393 25.2795C16.1123 24.9525 15.6687 24.7687 15.2062 24.7687H5.625V54.375H54.375V24.7687H44.7937ZM9.16875 36.9562H16.0687V42.1875H9.1125L9.16875 36.9562ZM28.3125 50.8875H9.1125V45.675H28.2562L28.3125 50.8875ZM50.9437 50.8875H31.7438V45.675H50.8875L50.9437 50.8875ZM50.9437 42.1875H43.9313V36.9562H50.8875L50.9437 42.1875Z" fill="#007AFF"/>
<path d="M29.0999 34.3874C29.7048 34.6114 30.37 34.6114 30.9749 34.3874C33.0562 33.6937 44.0999 29.4562 44.0999 16.5937V8.47494C44.0953 8.08761 44.0128 7.70518 43.8573 7.3504C43.7018 6.99562 43.4765 6.67575 43.1949 6.40984C42.9132 6.14392 42.5809 5.93739 42.2178 5.80255C41.8547 5.66771 41.4681 5.60731 41.0812 5.62494H18.9187C18.1658 5.63466 17.4465 5.93804 16.9142 6.47043C16.3818 7.00282 16.0784 7.7221 16.0687 8.47494V16.5937C16.0687 29.4562 27.0187 33.7499 29.0999 34.3874ZM19.5562 9.11244H40.4437V16.6124C40.4464 19.808 39.4374 22.9224 37.5613 25.5092C35.6852 28.096 33.0383 30.0225 29.9999 31.0124C26.9585 30.0215 24.3094 28.0922 22.433 25.5016C20.5566 22.911 19.5494 19.7924 19.5562 16.5937V9.11244Z" fill="#007AFF"/>
</svg>
