<svg width="18" height="18" fill="none" xmlns="http://www.w3.org/2000/svg"><path d="M1.045 12.03c0-.837.679-1.515 1.516-1.515h12.878c.837 0 1.515.678 1.515 1.515v3.788c0 .836-.678 1.515-1.515 1.515H2.561a1.515 1.515 0 0 1-1.516-1.515V12.03z" fill="#ACD3F7"/><path fill-rule="evenodd" clip-rule="evenodd" d="M9 3.318c.21 0 .379.17.379.379v9.848a.379.379 0 1 1-.758 0V3.697c0-.21.17-.38.379-.38z" fill="#22273C"/><path d="M2.875 1.833c0-.644.522-1.166 1.166-1.166h9.918c.644 0 1.166.522 1.166 1.166v1.703c0 .644-.522 1.167-1.166 1.167H4.04a1.167 1.167 0 0 1-1.166-1.167V1.833z" fill="#007AFF"/><path fill-rule="evenodd" clip-rule="evenodd" d="M4.667 2.681c0-.16.13-.291.292-.291h5.094a.292.292 0 1 1 0 .583H4.958a.292.292 0 0 1-.292-.292z" fill="#ACD3F7"/><path d="M13.332 2.696c0 .398-.334.721-.747.721a.734.734 0 0 1-.747-.72c0-.399.335-.721.747-.721.413 0 .747.322.747.72z" fill="#FF9800"/><path d="M2.875 6.446c0-.644.522-1.167 1.166-1.167h9.918c.644 0 1.166.523 1.166 1.167v1.703c0 .644-.522 1.166-1.166 1.166H4.04A1.167 1.167 0 0 1 2.875 8.15V6.446z" fill="#007AFF"/><path fill-rule="evenodd" clip-rule="evenodd" d="M4.667 7.294c0-.161.13-.292.292-.292h5.094a.292.292 0 1 1 0 .583H4.958a.292.292 0 0 1-.292-.291z" fill="#ACD3F7"/><path d="M13.332 7.153c0 .398-.334.721-.747.721a.734.734 0 0 1-.747-.72c0-.399.335-.721.747-.721.413 0 .747.322.747.72z" fill="#FF9800"/><path fill-rule="evenodd" clip-rule="evenodd" d="M13.545 13.848c0 .21-.17.379-.379.379H4.833a.379.379 0 0 1 0-.758h8.333c.21 0 .379.17.379.379z" fill="#22273C"/><path d="M10.515 13.848a1.515 1.515 0 1 1-3.03 0 1.515 1.515 0 0 1 3.03 0z" fill="#EEF6FF"/><path fill-rule="evenodd" clip-rule="evenodd" d="M9 14.606a.758.758 0 1 0 0-1.515.758.758 0 0 0 0 1.515zm0 .757a1.515 1.515 0 1 0 0-3.03 1.515 1.515 0 0 0 0 3.03z" fill="#22273C"/><path d="M5.212 13.848a.758.758 0 1 1-1.515 0 .758.758 0 0 1 1.515 0zM14.303 13.848a.758.758 0 1 1-1.515 0 .758.758 0 0 1 1.515 0z" fill="#22273C"/></svg>