<svg width="18" height="18" fill="none" xmlns="http://www.w3.org/2000/svg"><path d="M16.45 9.798a7.392 7.392 0 1 1-14.783 0 7.392 7.392 0 0 1 14.783 0z" fill="#ACD3F7"/><mask id="a" maskUnits="userSpaceOnUse" x="1" y="2" width="16" height="16"><path d="M16.45 9.798a7.392 7.392 0 1 1-14.783 0 7.392 7.392 0 0 1 14.783 0z" fill="#ACD3F7"/></mask><g mask="url(#a)"><path d="M.333 9.406c0-.736.597-1.333 1.333-1.333h8.157c.737 0 1.333.597 1.333 1.333v2.363H.333V9.406z" fill="#007AFF"/><path d="M.333 11.505h10.823v3.432H.333v-3.432z" fill="#007AFF"/><path d="M.333 14.672h10.823v2.363c0 .736-.596 1.333-1.333 1.333H1.666a1.333 1.333 0 0 1-1.333-1.333v-2.363z" fill="#007AFF"/><path fill-rule="evenodd" clip-rule="evenodd" d="M1.917 9.851c0-.184.15-.333.333-.333H6.6a.333.333 0 1 1 0 .667H2.25a.333.333 0 0 1-.333-.334zM1.917 13.02c0-.185.15-.334.333-.334H6.6a.333.333 0 0 1 0 .667H2.25a.333.333 0 0 1-.333-.334zM1.917 16.451c0-.184.15-.333.333-.333H6.6a.333.333 0 1 1 0 .666H2.25a.333.333 0 0 1-.333-.333z" fill="#ACD3F7"/><path d="M9.573 9.789a.66.66 0 1 1-1.32 0 .66.66 0 0 1 1.32 0zM9.573 13.22a.66.66 0 1 1-1.32 0 .66.66 0 0 1 1.32 0zM9.573 16.653a.66.66 0 1 1-1.32 0 .66.66 0 0 1 1.32 0z" fill="#FF9800"/><path fill-rule="evenodd" clip-rule="evenodd" d="M11.156 11.769H.333v-.334h10.823v.334zM11.156 14.936H.333v-.333h10.823v.333z" fill="#0057B2"/></g><path d="M17.333 4.333a3.667 3.667 0 1 1-7.333 0 3.667 3.667 0 0 1 7.333 0z" fill="#FF9800"/><path d="M12.47 3.81l2.254-.604-.264.456a.23.23 0 0 0 .397.23l.54-.936a.228.228 0 0 0-.016-.254.228.228 0 0 0-.068-.059l-.935-.54a.23.23 0 0 0-.23.397l.457.263-2.253.604a.23.23 0 0 0 .119.443zM14.98 5.299l-2.252.604.456.263a.23.23 0 1 1-.23.397l-.935-.54a.23.23 0 0 1-.084-.313l.54-.936a.23.23 0 0 1 .398.23l-.264.456 2.253-.604a.23.23 0 1 1 .119.443z" fill="#EEF6FF"/><path d="M7.644 6.3l.966-.26a.333.333 0 1 1 .173.645l-.966.258a.333.333 0 0 1-.173-.643zm-.989-1.116l1.61-.431a.333.333 0 1 1 .172.644l-1.61.431a.333.333 0 0 1-.172-.644z" fill="#22273C"/></svg>