<svg width="18" height="18" fill="none" xmlns="http://www.w3.org/2000/svg"><path d="M9.08 17.315a7.392 7.392 0 1 0 0-14.784 7.392 7.392 0 0 0 0 14.784z" fill="#ACD3F7"/><path fill-rule="evenodd" clip-rule="evenodd" d="M9.067 17.315h.024a7.393 7.393 0 0 0 6.659-4.203v-2.406c0-.7-.567-1.266-1.266-1.266H3.516c-.7 0-1.266.567-1.266 1.266v2.05a7.394 7.394 0 0 0 6.817 4.559z" fill="#007AFF"/><mask id="a" maskUnits="userSpaceOnUse" x="1" y="2" width="16" height="16"><path d="M9.08 17.315a7.392 7.392 0 1 0 0-14.784 7.392 7.392 0 0 0 0 14.784z" fill="#ACD3F7"/></mask><g mask="url(#a)"><path d="M12.837 19.367a.798.798 0 0 0 .469-.143.435.435 0 0 0 .194-.346c0-.907-.489-1.776-1.36-2.418-.87-.64-2.05-1.001-3.28-1.001-1.231 0-2.412.36-3.282 1.002-.87.64-1.36 1.51-1.36 2.417 0 .13.07.254.195.346a.799.799 0 0 0 .469.143h7.955z" fill="#FF9800"/><path d="M7.638 16.925h2.442v-2.22c.968-.407 1.466-1.047 1.466-2.177 0 0 .248 0 .488-.244s.24-.488.24-1.221c0-.733-.349-.606-.349-.977l.304-.137c0-.423.16-.83.446-1.137a.06.06 0 0 0 .007-.068 2.717 2.717 0 0 0-2.015-1.268l-.168-.019c-.055-.006-.066-.083-.015-.105l.346-.144a.055.055 0 0 0 .002-.101c-1.326-.605-3.158-.697-4.313.433-.994.973-1.012 2.37-1.003 2.765v.938c0 .364-.087.669.153.977.241.308.503.308.503.308 0 1.13.498 1.77 1.466 2.176v2.22z" fill="#EAB99E"/><path d="M12.802 8.744c.013.02.01.05-.007.068-.29.307-.452.714-.452 1.137v1.494c0 .339-.256.671-.712.671v-1.69c0-.726-.588-1.314-1.313-1.314H7.526c-.726 0-1.314.588-1.314 1.314v1.69a.675.675 0 0 1-.684-.671v-1.138c-.009-.396.01-1.792 1.018-2.765 1.173-1.13 3.032-1.038 4.378-.433a.055.055 0 0 1-.001.1l-.351.145c-.053.022-.042.1.014.105l.171.019c.817.087 1.575.53 2.045 1.268z" fill="#22273C"/><path fill-rule="evenodd" clip-rule="evenodd" d="M10.11 12.608c.13.035.208.17.173.3-.125.468-.435.716-.784.815-.331.095-.687.054-.948-.015a.244.244 0 1 1 .127-.472c.211.057.47.08.687.018.2-.057.37-.186.446-.473a.244.244 0 0 1 .3-.173z" fill="#22273C"/><path d="M9.348 19.367h-.977s-.244-1.466-.488-1.954l-1.71-.977 1.465-.977c0 .489.489.977 1.222.977.732 0 1.22-.489 1.22-.977l1.466.977-1.71.977c-.244.488-.488 1.954-.488 1.954z" fill="#EEF6FF"/></g><path d="M5.333 1.644c0-.54.438-.977.978-.977h5.378c.54 0 .978.437.978.977v2.934c0 .54-.438.977-.978.977H6.311a.978.978 0 0 1-.978-.977V1.644z" fill="#FF9800"/><path d="M8.736 1.985a1.242 1.242 0 0 0-1.365.276l-.856.869a.71.71 0 0 0-.203.497c0 .386.313.704.693.704h.026a.529.529 0 0 1-.18-.879l.716-.726.076-.078.026-.026.029-.03a1.61 1.61 0 0 1 1.316-.446 1.24 1.24 0 0 0-.278-.161zm2.903.343a.694.694 0 0 0-.904-.387l-.009.003a.684.684 0 0 0-.22.151l-.525.532-.075.076a.23.23 0 0 1-.327 0l-.402-.408a1.496 1.496 0 0 0-.905.063.78.78 0 0 1 .543.235l.696.705a.326.326 0 0 0 .463 0l.858-.87a.516.516 0 0 1 .856.202.718.718 0 0 0-.049-.302zm-.441.066a.396.396 0 0 0-.07.006.236.236 0 0 1 .031.358l-.853.866-.005.006a1.61 1.61 0 0 1-1.308.452 1.243 1.243 0 0 0 1.635-.12l.832-.844.026-.027.027-.03a.41.41 0 0 0-.316-.667zm-1.464 1.47a.783.783 0 0 1-.55-.235l-.693-.701a.323.323 0 0 0-.466-.003l-.204.207-.086.087-.2.202-.082.084-.137.14-.122.123-.025.025a.23.23 0 0 1-.356-.036.41.41 0 0 0 .443.486.402.402 0 0 0 .23-.108l.005-.005.005-.005.007-.007.226-.229.366-.372a.23.23 0 0 1 .325.002l.41.416c.301.07.617.046.904-.071z" fill="#EEF6FF"/><path d="M16.127 6.438l-.717-.302-.16-.731a.1.1 0 0 0-.168-.045l-.505.552-.772-.096a.099.099 0 0 0-.06.012.09.09 0 0 0-.032.126l.404.644-.316.672a.088.088 0 0 0-.008.05.1.1 0 0 0 .118.08l.755-.155.577.512a.1.1 0 0 0 .057.025c.053.005.1-.032.104-.083l.062-.74.672-.355a.09.09 0 0 0 .04-.043.093.093 0 0 0-.051-.123zM1.627 6.438l.716-.302.16-.731a.1.1 0 0 1 .168-.045l.505.552.772-.096a.099.099 0 0 1 .06.012.09.09 0 0 1 .044.056.09.09 0 0 1-.011.07l-.405.644.317.672c.007.015.01.033.007.05a.093.093 0 0 1-.021.047.1.1 0 0 1-.097.033l-.755-.155-.576.512a.1.1 0 0 1-.057.025.093.093 0 0 1-.104-.083l-.062-.74-.672-.355a.09.09 0 0 1-.041-.043.093.093 0 0 1 .052-.123z" fill="#FF9800"/></svg>