<svg width="48" height="48" viewBox="0 0 48 48" fill="none" xmlns="http://www.w3.org/2000/svg">
<path d="M0 4C0 1.79086 1.79086 0 4 0H44C46.2091 0 48 1.79086 48 4V44C48 46.2091 46.2091 48 44 48H4C1.79086 48 0 46.2091 0 44V4Z" fill="#007BFF"/>
<path d="M24.0532 10C25.9168 10 27.704 10.7394 29.0218 12.0555C30.3395 13.3715 31.0798 15.1565 31.0798 17.0178C31.0798 18.879 30.3395 20.664 29.0218 21.9801C27.704 23.2961 25.9168 24.0355 24.0532 24.0355C22.1897 24.0355 20.4024 23.2961 19.0847 21.9801C17.7669 20.664 17.0266 18.879 17.0266 17.0178C17.0266 15.1565 17.7669 13.3715 19.0847 12.0555C20.4024 10.7394 22.1897 10 24.0532 10ZM24.0532 37.9647C24.0532 37.9647 38 37.9647 38 34.4558C38 30.9469 31.1863 25.7368 24.0532 25.7368C16.9202 25.7368 10 30.309 10 34.4558C10 38.6027 24.0532 37.9647 24.0532 37.9647Z" fill="white"/>
</svg>
