<svg width="18" height="18" fill="none" xmlns="http://www.w3.org/2000/svg"><path d="M8.798 17.438a7.392 7.392 0 1 0 0-14.784 7.392 7.392 0 0 0 0 14.784z" fill="#ACD3F7"/><path d="M11.976 10.953H2.509c-.39 0-.713.195-.973.454.649 3.437 3.631 6.03 7.262 6.03a7.564 7.564 0 0 0 4.474-1.491V12.25a1.3 1.3 0 0 0-1.296-1.297z" fill="#007AFF"/><path d="M9.382 8.23H1.6a8.049 8.049 0 0 0-.195 1.75c0 4.15 3.307 7.457 7.392 7.457.649 0 1.297-.064 1.88-.259V9.527A1.3 1.3 0 0 0 9.383 8.23z" fill="#EEF6FF"/><path d="M8.863 12.64H3.416c-.13 0-.26-.13-.26-.26s.13-.26.26-.26h5.447c.13 0 .26.13.26.26s-.066.26-.26.26zM8.863 13.871H3.416c-.13 0-.26-.13-.26-.26 0-.129.13-.259.26-.259h5.447c.13 0 .26.13.26.26s-.066.26-.26.26zM4.714 9.737h.296l-.428 1.2h-.249l-.254-.72-.257.72h-.25l-.427-1.2h.318l.249.761.269-.76h.216l.257.774.26-.775zM6.759 9.737h.296l-.43 1.2h-.248l-.253-.72-.257.72h-.25l-.428-1.2h.319l.248.761.27-.76h.215l.257.774.26-.775zM8.803 9.737H9.1l-.429 1.2h-.248l-.254-.72-.257.72h-.25l-.427-1.2h.318l.249.761.268-.76h.217l.257.774.26-.775z" fill="#22273C"/><path d="M16.594 4.36A3.797 3.797 0 1 1 9 4.36a3.797 3.797 0 0 1 7.594 0z" fill="#FF9800"/><path d="M11.558 3.817l2.333-.625-.273.473a.238.238 0 0 0 .412.237l.559-.969a.238.238 0 0 0-.087-.324l-.969-.56a.237.237 0 1 0-.237.412l.473.273-2.334.625a.237.237 0 0 0 .123.458zM14.158 5.36l-2.333.625.473.273a.237.237 0 0 1-.238.41l-.969-.559a.238.238 0 0 1-.086-.324l.559-.969a.237.237 0 1 1 .41.238l-.272.472 2.333-.625a.237.237 0 0 1 .123.459z" fill="#EEF6FF"/><path d="M6.87 6.398l.966-.26a.333.333 0 0 1 .172.645l-.966.259a.333.333 0 0 1-.172-.644zm-.99-1.116l1.61-.431a.333.333 0 0 1 .173.644l-1.61.431a.333.333 0 0 1-.172-.644z" fill="#22273C"/></svg>