<svg width="18" height="18" fill="none" xmlns="http://www.w3.org/2000/svg"><path d="M9.08 17.438a7.392 7.392 0 1 0 0-14.784 7.392 7.392 0 0 0 0 14.784z" fill="#ACD3F7"/><path d="M9.144 6.155a2.4 2.4 0 1 0 0-4.798 2.4 2.4 0 0 0 0 4.798z" fill="#EEF6FF"/><path d="M6.94 6.025c1.167 1.168 2.918 1.232 4.215.26l2.463 2.464.584-.584-2.464-2.464a3.179 3.179 0 0 0-.26-4.215 3.17 3.17 0 0 0-4.473 0c-1.362 1.297-1.362 3.307-.065 4.54zm.518-3.955c.908-.908 2.464-.908 3.372 0 .908.908.908 2.464 0 3.372-.908.908-2.464.908-3.372 0-.907-.908-.907-2.4 0-3.372z" fill="#22273C"/><path d="M12.657 8.299l.324.324 1.362 1.361c.324.325.778.325 1.102 0 .324-.324.324-.778 0-1.102l-1.362-1.361-.324-.325-.519.519-.583.584z" fill="#FF9800"/><path d="M12.257 10.953H2.79c-.389 0-.713.195-.973.454.649 3.437 3.631 6.03 7.263 6.03a7.564 7.564 0 0 0 4.474-1.491V12.25a1.3 1.3 0 0 0-1.297-1.297z" fill="#007AFF"/><path d="M9.663 8.23H1.882a8.049 8.049 0 0 0-.194 1.75c0 4.15 3.306 7.457 7.391 7.457.649 0 1.297-.064 1.88-.259V9.527A1.3 1.3 0 0 0 9.664 8.23z" fill="#EEF6FF"/><path d="M9.144 12.64H3.697c-.13 0-.259-.13-.259-.26s.13-.26.26-.26h5.446c.13 0 .26.13.26.26s-.065.26-.26.26zM9.144 13.871H3.697c-.13 0-.259-.13-.259-.26 0-.129.13-.259.26-.259h5.446c.13 0 .26.13.26.26s-.065.26-.26.26zM4.996 9.737h.296l-.43 1.2h-.248l-.253-.72-.257.72h-.25l-.428-1.2h.319l.248.761.269-.76h.216l.257.774.26-.775zM7.04 9.737h.296l-.429 1.2H6.66l-.254-.72-.257.72h-.25l-.427-1.2h.318l.248.761.27-.76h.216l.257.774.26-.775zM9.084 9.737h.296l-.428 1.2h-.249l-.254-.72-.257.72h-.25l-.427-1.2h.318l.249.761.269-.76h.216l.257.774.26-.775z" fill="#22273C"/></svg>