<svg width="18" height="18" fill="none" xmlns="http://www.w3.org/2000/svg"><path d="M8.236 17.438a7.392 7.392 0 1 0 0-14.784 7.392 7.392 0 0 0 0 14.784z" fill="#ACD3F7"/><path fill-rule="evenodd" clip-rule="evenodd" d="M8.224 17.438h.024a7.392 7.392 0 0 0 6.658-4.203v-2.407c0-.699-.566-1.265-1.265-1.265H2.67c-.698 0-1.265.566-1.265 1.265v2.051a7.394 7.394 0 0 0 6.818 4.559z" fill="#007AFF"/><path fill-rule="evenodd" clip-rule="evenodd" d="M13.219 15.505a7.365 7.365 0 0 1-4.983 1.932 7.368 7.368 0 0 1-5.142-2.08V8.015c0-.7.566-1.266 1.265-1.266h7.594c.7 0 1.266.567 1.266 1.266v7.49z" fill="#EEF6FF"/><path d="M9.293 13.186H4.77c-.134 0-.269-.133-.269-.265s.135-.265.269-.265h4.524c.135 0 .27.133.27.265s-.068.265-.27.265zM9.293 14.443H4.77c-.134 0-.269-.132-.269-.265 0-.132.135-.264.269-.264h4.524c.135 0 .27.132.27.264 0 .133-.068.265-.27.265zM11.262 13.186h-.868c-.135 0-.269-.133-.269-.265s.134-.265.269-.265h.868c.135 0 .27.133.27.265s-.068.265-.27.265zM11.262 14.443h-.868c-.135 0-.269-.132-.269-.265 0-.132.134-.264.269-.264h.868c.135 0 .27.132.27.264 0 .133-.068.265-.27.265zM4.5 7.875a.281.281 0 1 1-.563 0 .281.281 0 0 1 .563 0zM5.344 7.875a.281.281 0 1 1-.563 0 .281.281 0 0 1 .563 0zM6.188 7.875a.281.281 0 1 1-.563 0 .281.281 0 0 1 .563 0z" fill="#22273C"/><path d="M4.5 9.844c0-.31.252-.563.563-.563h5.906c.31 0 .562.252.562.563v1.125c0 .31-.252.562-.562.562H5.063a.562.562 0 0 1-.563-.562V9.844z" fill="#007AFF"/><path d="M1.125 2.25c0-.31.252-.563.563-.563h10.124c.311 0 .563.252.563.563v2.716c0 .311-.252.563-.563.563H1.688a.563.563 0 0 1-.563-.563V2.25z" fill="#FF9800"/><path d="M4.433 2.806h.417L4.246 4.41h-.35l-.357-.963-.362.963h-.353l-.601-1.605h.448l.35 1.018.379-1.018h.304l.362 1.036.367-1.036zM6.253 2.806h.432V4.41h-.432v-.649h-.69v.649H5.13V2.806h.432v.624h.69v-.624zM7.891 4.431a.96.96 0 0 1-.45-.1.72.72 0 0 1-.293-.287.89.89 0 0 1-.103-.437c0-.167.034-.312.103-.435a.702.702 0 0 1 .293-.287.96.96 0 0 1 .45-.1c.173 0 .322.034.449.1a.684.684 0 0 1 .292.287.877.877 0 0 1 .103.435.89.89 0 0 1-.103.437.717.717 0 0 1-.295.287.94.94 0 0 1-.446.1zm0-.32a.371.371 0 0 0 .3-.128c.072-.087.108-.212.108-.376s-.037-.288-.11-.373a.369.369 0 0 0-.298-.128.371.371 0 0 0-.3.128c-.071.083-.107.208-.107.373 0 .166.036.29.108.376a.371.371 0 0 0 .3.127zM9.092 4.411V2.806h.441V4.41h-.44zM10.546 4.431c-.126 0-.25-.015-.374-.047a.939.939 0 0 1-.3-.128l.137-.296a1.067 1.067 0 0 0 .542.15.512.512 0 0 0 .218-.036c.051-.026.077-.061.077-.107 0-.041-.023-.074-.07-.1a.978.978 0 0 0-.258-.078 1.57 1.57 0 0 1-.372-.114.446.446 0 0 1-.19-.154.421.421 0 0 1-.052-.219c0-.099.029-.187.086-.264a.578.578 0 0 1 .247-.185.93.93 0 0 1 .367-.068c.121 0 .239.017.352.05a.741.741 0 0 1 .269.125l-.134.297a.872.872 0 0 0-.485-.15.373.373 0 0 0-.196.045c-.05.029-.075.067-.075.116 0 .029.01.052.027.07a.28.28 0 0 0 .098.055c.048.017.12.034.213.053.154.031.274.07.362.116.088.044.15.095.187.154.037.06.056.13.056.212a.428.428 0 0 1-.192.371c-.128.088-.308.132-.54.132z" fill="#EEF6FF"/><path d="M16.542 3.154a1.81 1.81 0 0 0-.067-1.145 1.751 1.751 0 0 0-.74-.86A1.72 1.72 0 0 0 14.629.93c-.384.053-.74.234-1.015.514a.52.52 0 0 0-.003.721.492.492 0 0 0 .71-.004.741.741 0 0 1 1.182.153.773.773 0 0 1-.28 1.046.743.743 0 0 1-.572.08h-.001a.467.467 0 0 0-.097-.006.508.508 0 0 0-.101-.006.492.492 0 0 0-.089.032.506.506 0 0 0-.093.033.513.513 0 0 0-.08.07.505.505 0 0 0-.065.059.534.534 0 0 0-.05.099.5.5 0 0 0-.04.082l-.132.493v.006l-.065.242a.516.516 0 0 0 .049.387.496.496 0 0 0 .303.235h.001a.492.492 0 0 0 .38-.053.51.51 0 0 0 .235-.311l.087-.327a1.75 1.75 0 0 0 1.037-.386c.297-.238.511-.566.612-.936zm-2.93 2.805a.514.514 0 0 0 .113.934.513.513 0 0 0 .381-.051.524.524 0 0 0 .188-.7.512.512 0 0 0-.682-.183z" fill="#22273C"/></svg>