<svg width="18" height="18" fill="none" xmlns="http://www.w3.org/2000/svg"><path d="M1.55 10.027a7.392 7.392 0 1 0 14.783 0 7.392 7.392 0 0 0-14.784 0z" fill="#ACD3F7"/><path fill-rule="evenodd" clip-rule="evenodd" d="M15 13.323H2.944l5.948-9.806L15 13.323zM8.901 5.128l-4.458 7.35h9.037l-4.579-7.35z" fill="#22273C"/><path d="M14.166 15.854a3.094 3.094 0 1 0 0-6.188 3.094 3.094 0 0 0 0 6.188z" fill="#FF9800"/><g clip-path="url(#clip0)"><path d="M14.166 11.448a.656.656 0 1 1 .001 1.312.656.656 0 0 1 0-1.312zm0 2.625s1.313 0 1.313-.328c0-.394-.64-.82-1.313-.82-.672 0-1.312.426-1.312.82 0 .328 1.313.328 1.313.328z" fill="#fff"/></g><path d="M3.76 15.854a3.094 3.094 0 1 0 0-6.187 3.094 3.094 0 0 0 0 6.187z" fill="#FF9800"/><g clip-path="url(#clip1)"><path d="M3.76 11.448a.656.656 0 1 1 0 1.312.656.656 0 0 1 0-1.312zm0 2.625s1.313 0 1.313-.328c0-.394-.64-.82-1.313-.82-.672 0-1.312.426-1.312.82 0 .328 1.312.328 1.312.328z" fill="#fff"/></g><path d="M8.938 8.542a3.938 3.938 0 1 0 0-7.876 3.938 3.938 0 0 0 0 7.876z" fill="#007AFF"/><mask id="a" maskUnits="userSpaceOnUse" x="5" y="0" width="8" height="9"><path d="M8.938 8.542a3.938 3.938 0 1 0 0-7.876 3.938 3.938 0 0 0 0 7.876z" fill="#ACD3F7"/></mask><g mask="url(#a)"><path d="M11.238 9.97c.109 0 .214-.033.291-.09a.27.27 0 0 0 .121-.215c0-.564-.304-1.105-.846-1.504-.541-.4-1.276-.623-2.042-.623-.765 0-1.5.224-2.041.623-.542.399-.846.94-.846 1.504 0 .08.043.158.12.215a.497.497 0 0 0 .292.09h4.95z" fill="#FF9800"/><path d="M8.003 8.45h1.52V7.067c.602-.253.911-.651.911-1.354 0 0 .155 0 .304-.152.15-.152.15-.304.15-.76s-.217-.377-.217-.608l.189-.085c0-.263.099-.517.277-.708.01-.01.012-.03.004-.042a1.69 1.69 0 0 0-1.253-.79l-.105-.01c-.034-.004-.041-.052-.01-.066l.216-.09c.027-.011.028-.05.001-.062-.825-.377-1.965-.434-2.684.27-.618.604-.629 1.473-.624 1.72v.583c0 .226-.054.416.096.608s.313.192.313.192c0 .703.31 1.1.912 1.354v1.381z" fill="#EAB99E"/><path d="M11.216 3.36a.036.036 0 0 1-.005.041 1.03 1.03 0 0 0-.281.708v.93c0 .21-.159.417-.443.417V4.404a.817.817 0 0 0-.817-.817H7.933a.817.817 0 0 0-.818.817v1.052a.42.42 0 0 1-.425-.418v-.707c-.006-.247.005-1.116.633-1.72.73-.704 1.887-.647 2.724-.27a.034.034 0 0 1 0 .062l-.22.09c-.032.014-.025.062.01.066l.106.01c.508.055.98.331 1.273.79z" fill="#22273C"/><path fill-rule="evenodd" clip-rule="evenodd" d="M9.54 5.764c.082.022.13.105.108.186a.684.684 0 0 1-.487.508 1.14 1.14 0 0 1-.59-.01.152.152 0 0 1 .079-.294.84.84 0 0 0 .427.011c.124-.035.23-.115.278-.294a.152.152 0 0 1 .186-.107z" fill="#22273C"/><path d="M9.066 9.97H8.46s-.152-.913-.304-1.217L7.09 8.145l.912-.607c0 .304.304.607.76.607.455 0 .76-.303.76-.607l.911.607-1.064.608c-.152.304-.304 1.216-.304 1.216z" fill="#EEF6FF"/></g><defs><clipPath id="clip0"><path fill="#fff" transform="translate(12.198 10.791)" d="M0 0h3.938v3.938H0z"/></clipPath><clipPath id="clip1"><path fill="#fff" transform="translate(1.792 10.791)" d="M0 0h3.938v3.938H0z"/></clipPath></defs></svg>