<svg width="18" height="18" fill="none" xmlns="http://www.w3.org/2000/svg"><path d="M14.475 6.752c-.226 0-.45.023-.672.068a2.815 2.815 0 0 0-1.46-1.96 2.72 2.72 0 0 0-2.416-.045C9.231 2.86 7.112 1.85 5.194 2.56c-1.918.71-2.908 2.87-2.212 4.825C1.302 7.439-.025 8.856 0 10.569c.026 1.713 1.394 3.09 3.075 3.092h11.4c1.871 0 3.389-1.546 3.389-3.454 0-1.908-1.518-3.455-3.39-3.455z" fill="#ACD3F7"/><path d="M7.667 6.666a.333.333 0 1 1-.667 0 .333.333 0 0 1 .667 0zM6.667 5a.667.667 0 1 1-1.334 0 .667.667 0 0 1 1.334 0z" fill="#fff"/><path fill-rule="evenodd" clip-rule="evenodd" d="M9.045 10c.21 0 .38.17.38.379v5.182a.379.379 0 1 1-.759 0v-5.182c0-.21.17-.379.38-.379z" fill="#22273C"/><path d="M2.667 9.833c0-.644.522-1.167 1.166-1.167h9.918c.644 0 1.166.523 1.166 1.167v1.703c0 .644-.522 1.167-1.166 1.167H3.833a1.167 1.167 0 0 1-1.167-1.167V9.833z" fill="#007AFF"/><path fill-rule="evenodd" clip-rule="evenodd" d="M4.459 10.681c0-.16.13-.291.292-.291h5.094a.292.292 0 0 1 0 .583H4.75a.292.292 0 0 1-.292-.292z" fill="#ACD3F7"/><path d="M13.124 10.696c0 .398-.334.721-.747.721a.734.734 0 0 1-.747-.72c0-.399.335-.721.747-.721.413 0 .747.322.747.72z" fill="#FF9800"/><path d="M2.667 14.446c0-.644.522-1.167 1.166-1.167h9.918c.644 0 1.166.523 1.166 1.167v1.703c0 .644-.522 1.166-1.166 1.166H3.833a1.167 1.167 0 0 1-1.167-1.166v-1.703z" fill="#007AFF"/><path fill-rule="evenodd" clip-rule="evenodd" d="M4.459 15.294c0-.162.13-.292.292-.292h5.094a.292.292 0 1 1 0 .583H4.75a.292.292 0 0 1-.292-.291z" fill="#ACD3F7"/><path d="M13.124 15.153c0 .398-.334.721-.747.721a.734.734 0 0 1-.747-.72c0-.399.335-.721.747-.721.413 0 .747.322.747.72z" fill="#FF9800"/><path d="M16.114 2.98v-.017a3.5 3.5 0 0 0-6.574 0v.018a3.451 3.451 0 0 0 0 2.352v.017a3.5 3.5 0 0 0 6.574 0v-.017a3.452 3.452 0 0 0 0-2.352z" fill="#EEF6FF"/><path d="M16.114 2.98v-.017a3.5 3.5 0 0 0-6.574 0v.018a3.451 3.451 0 0 0 0 2.352v.017a3.5 3.5 0 0 0 6.574 0v-.017a3.452 3.452 0 0 0 0-2.352zm-6.003 1.877a2.736 2.736 0 0 1 0-1.4h.65a5.856 5.856 0 0 0 0 1.4h-.65zm.287.7h.49c.082.312.2.614.35.9a2.8 2.8 0 0 1-.84-.9zm.49-2.8h-.49a2.8 2.8 0 0 1 .83-.9c-.147.286-.261.588-.34.9zm1.582 4.095a2.219 2.219 0 0 1-.85-1.295h.85v1.295zm0-1.995h-1.001a5.028 5.028 0 0 1 0-1.4h1.001v1.4zm0-2.1h-.85c.118-.52.42-.98.85-1.296v1.296zm2.772 0h-.49a4.257 4.257 0 0 0-.35-.9 2.8 2.8 0 0 1 .84.9zM13.17 1.46c.43.316.732.776.85 1.296h-.85V1.46zm0 5.391V5.557h.85c-.118.52-.42.98-.85 1.295zm1.001-1.995h-1v-1.4h1c.066.464.066.935 0 1.4zm.242 1.6c.15-.286.268-.588.35-.9h.49a2.8 2.8 0 0 1-.84.9zm1.116-1.6h-.65a5.688 5.688 0 0 0 0-1.4h.65c.122.459.122.941 0 1.4z" fill="#FF9800"/></svg>