<svg width="18" height="18" fill="none" xmlns="http://www.w3.org/2000/svg"><path d="M14.475 5.085c-.226 0-.45.023-.672.069a2.815 2.815 0 0 0-1.46-1.961 2.72 2.72 0 0 0-2.416-.045C9.231 1.193 7.112.184 5.194.894c-1.918.71-2.908 2.87-2.212 4.824C1.302 5.772-.025 7.19 0 8.903c.026 1.713 1.394 3.089 3.075 3.092h11.4c1.871 0 3.389-1.547 3.389-3.455 0-1.908-1.518-3.455-3.39-3.455z" fill="#ACD3F7"/><path fill-rule="evenodd" clip-rule="evenodd" d="M8.888 8.257c.218 0 .395.177.395.395v6.787a.395.395 0 1 1-.79 0V8.652c0-.218.177-.395.395-.395z" fill="#22273C"/><path d="M2.508 8.044c0-.672.544-1.216 1.215-1.216h10.331c.672 0 1.216.544 1.216 1.216v1.773c0 .671-.544 1.216-1.216 1.216H3.724a1.215 1.215 0 0 1-1.216-1.216V8.044z" fill="#007AFF"/><path fill-rule="evenodd" clip-rule="evenodd" d="M4.375 8.927c0-.168.136-.304.304-.304h5.306a.304.304 0 0 1 0 .608H4.68a.304.304 0 0 1-.304-.304z" fill="#ACD3F7"/><path d="M13.402 8.78c0 .415-.349.751-.779.751a.765.765 0 0 1-.778-.75c0-.415.349-.751.778-.751.43 0 .779.336.779.75z" fill="#FF9800"/><path fill-rule="evenodd" clip-rule="evenodd" d="M13.624 15.755a.394.394 0 0 1-.395.394H4.55a.395.395 0 1 1 0-.79h8.68c.218 0 .395.178.395.396z" fill="#22273C"/><path d="M10.468 15.755a1.578 1.578 0 1 1-3.157 0 1.578 1.578 0 0 1 3.157 0z" fill="#EEF6FF"/><path fill-rule="evenodd" clip-rule="evenodd" d="M8.89 16.544a.79.79 0 1 0 0-1.579.79.79 0 0 0 0 1.579zm0 .789a1.578 1.578 0 1 0 0-3.157 1.578 1.578 0 0 0 0 3.157z" fill="#22273C"/><path d="M4.943 15.755a.79.79 0 1 1-1.578 0 .79.79 0 0 1 1.578 0zM14.413 15.755a.79.79 0 1 1-1.578 0 .79.79 0 0 1 1.578 0z" fill="#22273C"/><path d="M10.333 5.667a2.333 2.333 0 1 0 0-4.667 2.333 2.333 0 0 0 0 4.667z" fill="#FF9800"/><path fill-rule="evenodd" clip-rule="evenodd" d="M9.807 4.205l-.583-.63a.222.222 0 0 1 0-.297.184.184 0 0 1 .274 0l.435.47 1.225-1.175a.184.184 0 0 1 .274-.022.221.221 0 0 1 .021.295l-1.361 1.347a.19.19 0 0 1-.14.074.19.19 0 0 1-.145-.062z" fill="#fff"/><path fill-rule="evenodd" clip-rule="evenodd" d="M11.502 2.891l-1.36 1.347a.256.256 0 0 1-.188.096h-.002a.257.257 0 0 1-.194-.083l.049-.045a.19.19 0 0 0 .144.06.19.19 0 0 0 .14-.072l1.362-1.347a.222.222 0 0 0-.021-.296.184.184 0 0 0-.274.023L9.933 3.748l-.435-.47a.184.184 0 0 0-.275 0 .222.222 0 0 0 0 .298l.584.63m.129-.553l-.389-.42a.25.25 0 0 0-.373 0c-.1.108-.1.28 0 .388l.584.63m.178-.598l1.172-1.124a.25.25 0 0 1 .369-.027c.107.1.12.271.028.386l-.003.003" fill="#fff"/><path d="M7.667 5A.333.333 0 1 1 7 5a.333.333 0 0 1 .667 0zM6.667 3.333a.667.667 0 1 1-1.334 0 .667.667 0 0 1 1.334 0z" fill="#fff"/></svg>