<svg width="18" height="18" fill="none" xmlns="http://www.w3.org/2000/svg"><path d="M16.783 9.798A7.392 7.392 0 1 1 2 9.798a7.392 7.392 0 0 1 14.783 0z" fill="#ACD3F7"/><mask id="a" maskUnits="userSpaceOnUse" x="2" y="2" width="15" height="16"><path d="M16.783 9.798A7.392 7.392 0 1 1 2 9.798a7.392 7.392 0 0 1 14.783 0z" fill="#ACD3F7"/></mask><g mask="url(#a)"><path d="M.667 9.406c0-.736.596-1.333 1.333-1.333h8.157c.736 0 1.333.597 1.333 1.333v2.363H.667V9.406z" fill="#007AFF"/><path d="M.667 11.505H11.49v3.432H.667v-3.432z" fill="#007AFF"/><path d="M.667 14.672H11.49v2.363c0 .736-.597 1.333-1.333 1.333H2a1.333 1.333 0 0 1-1.333-1.333v-2.363z" fill="#007AFF"/><path fill-rule="evenodd" clip-rule="evenodd" d="M2.25 9.851c0-.184.15-.333.334-.333h4.349a.333.333 0 1 1 0 .667h-4.35a.333.333 0 0 1-.333-.334zM2.25 13.02c0-.185.15-.334.334-.334h4.349a.333.333 0 0 1 0 .667h-4.35a.333.333 0 0 1-.333-.334zM2.25 16.451c0-.184.15-.333.334-.333h4.349a.333.333 0 1 1 0 .666h-4.35a.333.333 0 0 1-.333-.333z" fill="#ACD3F7"/><path d="M9.906 9.789a.66.66 0 1 1-1.32 0 .66.66 0 0 1 1.32 0zM9.906 13.22a.66.66 0 1 1-1.32 0 .66.66 0 0 1 1.32 0zM9.906 16.653a.66.66 0 1 1-1.32 0 .66.66 0 0 1 1.32 0z" fill="#FF9800"/><path fill-rule="evenodd" clip-rule="evenodd" d="M11.49 11.769H.667v-.334H11.49v.334zM11.49 14.936H.667v-.333H11.49v.333z" fill="#0057B2"/></g><path d="M8.72 4.438h8.105v3.86H8.72v-3.86z" fill="#EEF6FF"/><path d="M16.323 3.667H9.221c-.488 0-.883.412-.883.916l-.004 5.5c0 .504.399.917.887.917h7.102c.488 0 .888-.413.888-.917v-5.5c0-.504-.4-.917-.888-.917zm-.178 1.947L13.007 7.64a.437.437 0 0 1-.47 0L9.399 5.614a.381.381 0 0 1-.181-.243.402.402 0 0 1 .046-.303.384.384 0 0 1 .243-.175.366.366 0 0 1 .291.061l2.974 1.92 2.974-1.92a.37.37 0 0 1 .535.114.4.4 0 0 1-.136.546z" fill="#FF9800"/><path d="M7 3.667a3 3 0 1 1-6 0 3 3 0 0 1 6 0z" fill="#22273C"/><path d="M4 2a1.667 1.667 0 1 0 .834 3.11.167.167 0 1 0-.167-.288 1.333 1.333 0 1 1 .667-1.155v.125a.292.292 0 0 1-.584 0v-.709a.167.167 0 0 0-.166-.166.167.167 0 0 0-.167.131.75.75 0 1 0 .133 1.118.623.623 0 0 0 1.117-.374v-.125A1.667 1.667 0 0 0 4 2zm0 2.083a.417.417 0 1 1 0-.833.417.417 0 0 1 0 .833z" fill="#EEF6FF"/></svg>