<svg width="18" height="18" fill="none" xmlns="http://www.w3.org/2000/svg"><path d="M8.392 17.315a7.392 7.392 0 1 0 0-14.784 7.392 7.392 0 0 0 0 14.784z" fill="#ACD3F7"/><path d="M8.392 17.315a7.392 7.392 0 1 0 0-14.784 7.392 7.392 0 0 0 0 14.784z" fill="#ACD3F7"/><path d="M1.281 7.104l1.116-1.198.431 1.407-1.547-.209zM15.484 4.01L14.37 2.813l-.431 1.406 1.546-.209z" fill="#FF9800"/><path d="M15.344 7.031a.563.563 0 1 1-1.125 0 .563.563 0 0 1 1.125 0zM3.427 3.885a.563.563 0 1 1-1.125 0 .563.563 0 0 1 1.125 0z" fill="#22273C"/><path d="M12.333 13.439a.802.802 0 0 0 .472-.144.437.437 0 0 0 .195-.348c0-.912-.492-1.786-1.367-2.431s-2.062-1.007-3.3-1.007-2.424.362-3.3 1.007c-.875.645-1.367 1.52-1.367 2.431 0 .13.07.256.196.348a.802.802 0 0 0 .471.144h8z" fill="#007AFF"/><path d="M7.105 10.982H9.56V8.75c.973-.409 1.474-1.052 1.474-2.188 0 0 .249 0 .491-.245.242-.246.242-.492.242-1.228 0-.737-.352-.61-.352-.983l.306-.137c0-.426.16-.836.448-1.144a.06.06 0 0 0 .007-.068 2.732 2.732 0 0 0-2.026-1.276l-.169-.018c-.056-.006-.067-.084-.015-.106l.348-.145c.044-.019.046-.082.002-.101C8.983.5 7.142.408 5.98 1.545c-1 .978-1.018 2.383-1.009 2.78v.944c0 .365-.088.672.154.982.242.31.506.31.506.31 0 1.136.5 1.78 1.474 2.188v2.233z" fill="#EAB99E"/><path d="M12.298 2.756c.013.02.009.05-.007.068a1.666 1.666 0 0 0-.455 1.144V5.47c0 .34-.257.675-.716.675v-1.7c0-.73-.59-1.321-1.32-1.321H6.991c-.73 0-1.32.591-1.32 1.32v1.701a.679.679 0 0 1-.689-.675V4.326c-.009-.398.01-1.803 1.024-2.78C7.187.407 9.056.5 10.41 1.11a.055.055 0 0 1-.002.1l-.353.146c-.053.022-.042.1.015.106l.171.018a2.777 2.777 0 0 1 2.057 1.276z" fill="#22273C"/><path fill-rule="evenodd" clip-rule="evenodd" d="M9.592 6.642c.131.035.209.17.174.301-.127.47-.438.72-.789.82-.333.096-.691.055-.953-.015a.246.246 0 0 1 .127-.475c.213.057.474.08.691.018.2-.057.372-.187.45-.475a.246.246 0 0 1 .3-.174z" fill="#22273C"/><path d="M8.824 13.439h-.982s-.246-1.474-.491-1.965l-1.72-.983 1.474-.982c0 .491.491.982 1.228.982S9.561 10 9.561 9.51l1.474.982-1.72.983c-.245.49-.49 1.965-.49 1.965z" fill="#EEF6FF"/><path fill-rule="evenodd" clip-rule="evenodd" d="M12.813 15.848a7.394 7.394 0 0 1-11.191-2.954 1.5 1.5 0 0 1 1.44-1.082h8.25a1.5 1.5 0 0 1 1.5 1.5v2.536z" fill="#007AFF"/><path fill-rule="evenodd" clip-rule="evenodd" d="M11.406 16.675a7.394 7.394 0 0 1-10.256-5.26c.273-.275.65-.446 1.069-.446h7.687a1.5 1.5 0 0 1 1.5 1.5v4.206z" fill="#22273C"/><path d="M4.938 14.906a1.125 1.125 0 1 1 2.25 0 1.125 1.125 0 0 1-2.25 0zM16.875 11.5a2.5 2.5 0 1 1-5 0 2.5 2.5 0 0 1 5 0z" fill="#FF9800"/><g clip-path="url(#clip0)"><path d="M14.125 10.625a.124.124 0 0 0-.116.077.126.126 0 0 0 .092.17.126.126 0 0 0 .149-.122.125.125 0 0 0-.125-.125zm-.5 0a.124.124 0 0 0-.116.077.126.126 0 0 0 .092.17.126.126 0 0 0 .149-.122.125.125 0 0 0-.125-.125zm1 0a.124.124 0 0 0-.116.077.126.126 0 0 0 .092.17.126.126 0 0 0 .149-.122.125.125 0 0 0-.125-.125zm.75-.5h-2A.375.375 0 0 0 13 10.5v2a.375.375 0 0 0 .375.375h2a.375.375 0 0 0 .375-.375v-2a.375.375 0 0 0-.375-.375zM15.5 12.5a.125.125 0 0 1-.125.125h-2a.125.125 0 0 1-.125-.125v-1.125h2.25V12.5zm0-1.375h-2.25V10.5a.125.125 0 0 1 .125-.125h2a.125.125 0 0 1 .125.125v.625z" fill="#fff"/></g><defs><clipPath id="clip0"><path fill="#fff" transform="translate(12.875 10)" d="M0 0h3v3H0z"/></clipPath></defs></svg>