<svg width="18" height="18" fill="none" xmlns="http://www.w3.org/2000/svg"><path d="M9.059 17.086a7.392 7.392 0 1 0 0-14.784 7.392 7.392 0 0 0 0 14.784z" fill="#ACD3F7"/><path d="M3.547 6.198L2.432 5 2 6.406l1.547-.208zM15.547 3.198L14.432 2 14 3.406l1.547-.208z" fill="#FF9800"/><path d="M15.792 5.896a.562.562 0 1 1-1.125 0 .562.562 0 0 1 1.125 0zM4.458 2.896a.563.563 0 1 1-1.125 0 .563.563 0 0 1 1.125 0z" fill="#22273C"/><mask id="a" maskUnits="userSpaceOnUse" x="1" y="2" width="16" height="16"><path d="M9.059 17.086a7.392 7.392 0 1 0 0-14.784 7.392 7.392 0 0 0 0 14.784z" fill="#FF9800"/></mask><g mask="url(#a)"><path d="M3 9.777C3 8.795 3.796 8 4.778 8h8.444C14.204 8 15 8.795 15 9.777v7.111c0 .982-.796 1.778-1.778 1.778H4.778A1.778 1.778 0 0 1 3 16.888v-7.11z" fill="#007AFF"/></g><path d="M12.333 3.833a3.167 3.167 0 1 1-6.333 0 3.167 3.167 0 0 1 6.333 0z" fill="#FF9800"/><path d="M8.95 2.958a1.082 1.082 0 0 0-.955.082 1.03 1.03 0 0 0-.171.132l-.706.676a.535.535 0 0 0-.168.387c0 .3.258.547.572.547h.021a.413.413 0 0 1-.281-.386c0-.112.048-.22.133-.297l.59-.565.063-.06.021-.02.024-.023a1.374 1.374 0 0 1 1.085-.347 1.038 1.038 0 0 0-.229-.126zm2.392.267a.584.584 0 0 0-.745-.301l-.007.003a.575.575 0 0 0-.182.117l-.432.413-.063.06-.006.005a.198.198 0 0 1-.263-.006L9.312 3.2a1.304 1.304 0 0 0-.745.05.662.662 0 0 1 .447.181l.573.549c.105.1.278.1.382 0l.708-.677a.44.44 0 0 1 .706.157.52.52 0 0 0-.04-.234zm-.364.051a.346.346 0 0 0-.057.005l.026.02a.178.178 0 0 1 0 .258l-.704.673-.004.004a1.374 1.374 0 0 1-1.078.351 1.076 1.076 0 0 0 1.058.102c.108-.048.206-.114.29-.195l.685-.655.022-.021a.31.31 0 0 0 .096-.222.328.328 0 0 0-.334-.32zM9.772 4.42a.665.665 0 0 1-.454-.183l-.57-.545a.28.28 0 0 0-.385-.003l-.169.161-.07.068-.165.158-.068.065-.113.108-.1.096-.02.02a.195.195 0 0 1-.294-.028.305.305 0 0 0-.006.06.328.328 0 0 0 .37.317.34.34 0 0 0 .19-.083l.004-.004.005-.004.006-.006.185-.178.302-.289a.198.198 0 0 1 .269.002l.337.323c.249.055.509.035.746-.055zM5.756 10.054c0-.024-.014-.035-.039-.035h-.315c-.025 0-.036.015-.043.04l-.282 1.245c-.004.021-.015.032-.031.032s-.027-.01-.032-.032l-.281-1.246c-.007-.024-.02-.039-.045-.039h-.313c-.025 0-.041.015-.041.035 0 .006.002.004.002.01l.336 1.34c.054.206.216.239.374.239.155 0 .318-.033.372-.24l.335-1.338c0-.007.003-.009.003-.011zM6.372 10.06c0-.028-.014-.04-.043-.04h-.302c-.027 0-.04.012-.04.04v1.52c0 .024.015.043.04.043h.302c.025 0 .043-.019.043-.043v-1.52zM7.99 11.598a.055.055 0 0 0-.006-.024l-.34-.609c.164-.063.29-.2.29-.432v-.028c0-.382-.292-.505-.678-.505-.16 0-.353.01-.457.028-.07.01-.101.028-.101.104v1.448c0 .024.02.043.045.043h.293c.024 0 .045-.019.045-.043v-.548c.042 0 .112.004.16.004l.024-.002.302.546c.012.024.02.043.045.043h.345c.023 0 .034-.008.034-.025zm-.438-1.065c0 .147-.077.205-.311.205h-.032c-.043 0-.11-.004-.128-.004v-.415c.027 0 .142-.006.175-.006.19 0 .296.06.296.192v.028zM9.349 10.06c0-.023-.023-.04-.048-.04H8.184c-.025 0-.045.017-.045.04v.223c0 .024.02.04.045.04h.367v1.257c0 .024.02.043.045.043h.295c.025 0 .045-.019.045-.043v-1.256h.365c.025 0 .048-.018.048-.041v-.223zM10.867 10.06c0-.023-.023-.04-.047-.04h-.293c-.025 0-.045.017-.045.04v.961c0 .218-.063.313-.266.313-.2 0-.264-.095-.264-.313v-.96c0-.024-.02-.042-.045-.042h-.295c-.025 0-.045.018-.045.041v.961c0 .492.288.622.649.622.358 0 .651-.13.651-.622v-.96zM12.494 11.589c0-.002-.003-.005-.003-.01l-.335-1.34c-.054-.207-.217-.239-.372-.239-.158 0-.32.032-.374.24l-.336 1.338c0 .007-.002.009-.002.01 0 .025.014.035.038.035h.316c.024 0 .038-.015.045-.038l.08-.355h.463l.08.354c.008.024.021.04.046.04h.315c.025 0 .039-.011.039-.035zm-.543-.654h-.336l.137-.596c.005-.022.016-.033.032-.033.02 0 .022.01.03.033l.137.596zM13.667 11.369a.044.044 0 0 0-.045-.043h-.387c-.106 0-.144-.035-.144-.147v-1.116a.044.044 0 0 0-.045-.044h-.296a.044.044 0 0 0-.045.044v1.116c0 .39.26.464.55.464.12 0 .295-.011.367-.028.03-.007.045-.022.045-.046v-.2zM5.883 13.527c0-.175-.07-.317-.304-.438l-.289-.149c-.119-.063-.15-.09-.15-.151 0-.078.047-.114.175-.114.153 0 .417.017.478.023h.004c.03 0 .039-.017.039-.036v-.219c0-.023-.016-.032-.034-.038a2.41 2.41 0 0 0-.478-.048c-.44 0-.577.184-.577.421 0 .156.059.294.266.412l.311.178c.117.066.149.1.149.163 0 .104-.045.152-.2.152-.088 0-.336-.02-.429-.026h-.006c-.025 0-.041.008-.041.04v.212c0 .024.02.037.045.043.115.029.246.048.426.048.457 0 .615-.244.615-.473zM7.44 12.418c0-.024-.023-.041-.048-.041H7.1c-.024 0-.045.017-.045.04v.961c0 .218-.063.313-.266.313-.2 0-.263-.095-.263-.313v-.96c0-.024-.02-.041-.045-.041h-.295c-.025 0-.045.017-.045.04v.961c0 .492.288.622.648.622.359 0 .652-.13.652-.622v-.96zM9.282 12.452c0-.045-.033-.075-.08-.075H8.99a.104.104 0 0 0-.1.058l-.344.615c-.01.02-.018.028-.025.028-.007 0-.014-.008-.025-.028l-.345-.615a.104.104 0 0 0-.099-.058H7.84c-.047 0-.08.028-.08.073v1.5c0 .024.02.03.038.03h.297c.02 0 .036-.019.036-.043v-.9c0-.01.005-.017.011-.017.007 0 .012.004.018.015l.203.356a.077.077 0 0 0 .068.037h.18c.03 0 .052-.013.068-.037l.202-.356c.007-.01.012-.015.018-.015.007 0 .012.006.012.017v.9c0 .024.015.044.036.044h.297c.018 0 .038-.007.038-.03v-1.499zM11.133 12.452c0-.045-.034-.075-.081-.075h-.212a.104.104 0 0 0-.099.058l-.345.615c-.009.02-.018.028-.025.028-.006 0-.013-.008-.024-.028l-.345-.615a.104.104 0 0 0-.1-.058h-.21c-.048 0-.082.028-.082.073v1.5c0 .024.02.03.038.03h.298c.02 0 .036-.019.036-.043v-.9c0-.01.004-.017.011-.017.007 0 .011.004.018.015l.203.356a.077.077 0 0 0 .067.037h.18c.03 0 .053-.013.068-.037l.203-.356c.007-.01.011-.015.018-.015.007 0 .011.006.011.017v.9c0 .024.016.044.036.044h.298c.018 0 .038-.007.038-.03v-1.499zM11.846 12.418c0-.028-.014-.041-.043-.041h-.302c-.027 0-.04.013-.04.04v1.52c0 .024.015.044.04.044h.302c.025 0 .043-.02.043-.044v-1.52zM13.28 12.418c0-.024-.022-.041-.047-.041h-1.118c-.024 0-.045.017-.045.04v.223c0 .024.02.041.045.041h.367v1.256c0 .024.02.044.046.044h.295c.024 0 .045-.02.045-.044v-1.256h.365c.024 0 .047-.017.047-.041v-.222z" fill="#EEF6FF"/><path fill-rule="evenodd" clip-rule="evenodd" d="M7.001 15.377c0 .207.169.376.377.376H10.847a.376.376 0 1 0 0-.753H7.378a.376.376 0 0 0-.377.377z" fill="#EEF6FF"/></svg>