<svg width="18" height="18" fill="none" xmlns="http://www.w3.org/2000/svg"><path d="M9.059 17.208a7.392 7.392 0 1 0 0-14.784 7.392 7.392 0 0 0 0 14.784z" fill="#ACD3F7"/><path fill-rule="evenodd" clip-rule="evenodd" d="M9.047 17.208h.024a7.393 7.393 0 0 0 6.659-4.203v-2.406c0-.7-.567-1.266-1.266-1.266H3.495c-.699 0-1.266.567-1.266 1.266v2.05a7.394 7.394 0 0 0 6.818 4.559z" fill="#007AFF"/><path d="M16.653 4.385l-1.022-.431-.23-1.043a.142.142 0 0 0-.24-.064l-.72.788-1.1-.138a.141.141 0 0 0-.087.017.129.129 0 0 0-.062.08.13.13 0 0 0 .016.101l.577.919-.45.958a.127.127 0 0 0 .019.139.142.142 0 0 0 .138.047l1.077-.22.822.729c.023.02.052.033.082.035a.132.132 0 0 0 .148-.117l.089-1.056.959-.507a.129.129 0 0 0 .058-.062.132.132 0 0 0-.074-.175zM1.419 4.385l1.022-.431.23-1.043a.142.142 0 0 1 .24-.064l.72.788 1.1-.138a.14.14 0 0 1 .087.017.129.129 0 0 1 .062.08.13.13 0 0 1-.016.101l-.578.919.452.958a.133.133 0 0 1-.02.139.143.143 0 0 1-.138.047l-1.077-.22-.823.729a.144.144 0 0 1-.081.035.132.132 0 0 1-.149-.117l-.088-1.056-.96-.507a.13.13 0 0 1-.058-.062.133.133 0 0 1 .075-.175zM11.505 2.31l-1.499-.213-.67-1.328a.192.192 0 0 0-.339 0l-.67 1.328-1.499.213a.19.19 0 0 0-.108.053.183.183 0 0 0 .004.262l1.084 1.033-.256 1.46a.18.18 0 0 0 .075.18.191.191 0 0 0 .199.014l1.34-.69 1.341.69c.037.019.08.025.12.018a.185.185 0 0 0 .154-.213l-.256-1.459 1.084-1.033a.183.183 0 0 0-.104-.315z" fill="#FF9800"/><path d="M4 8.666c0-.736.597-1.333 1.333-1.333h7.334c.736 0 1.333.597 1.333 1.333v4c0 .737-.597 1.334-1.333 1.334H5.333A1.333 1.333 0 0 1 4 12.666v-4z" fill="#22273C"/><path d="M8.64 9.13a1.694 1.694 0 0 0-1.861.377L5.61 10.692a.967.967 0 0 0-.277.678c0 .527.427.96.945.96h.035a.726.726 0 0 1-.245-1.198l.977-.99.103-.106.035-.036.04-.04a2.195 2.195 0 0 1 1.794-.608 1.69 1.69 0 0 0-.378-.221zm3.958.469a.947.947 0 0 0-1.232-.529l-.012.005a.929.929 0 0 0-.302.206l-.714.725-.103.104a.313.313 0 0 1-.446 0l-.549-.556c-.41-.1-.84-.07-1.233.085.279.005.544.12.74.32l.949.962a.445.445 0 0 0 .632 0l1.17-1.187a.704.704 0 0 1 1.168.275 1.002 1.002 0 0 0-.068-.41zm-.601.09a.54.54 0 0 0-.096.008.319.319 0 0 1 .135.263.322.322 0 0 1-.092.226l-1.163 1.18-.007.008a2.196 2.196 0 0 1-1.784.617 1.695 1.695 0 0 0 2.23-.165l1.134-1.15.036-.037a.564.564 0 0 0 .158-.39c0-.307-.249-.56-.552-.56zM10 11.693a1.067 1.067 0 0 1-.75-.32l-.944-.957a.44.44 0 0 0-.636-.004l-.278.282-.117.12-.273.275-.112.115-.187.19-.166.168-.034.035a.313.313 0 0 1-.486-.05.559.559 0 0 0 .604.662.548.548 0 0 0 .314-.146l.007-.007.007-.007.01-.01.307-.312.5-.506a.314.314 0 0 1 .443.002l.558.567A2.04 2.04 0 0 0 10 11.693z" fill="#EEF6FF"/></svg>