<svg width="18" height="18" fill="none" xmlns="http://www.w3.org/2000/svg"><path d="M1.406 10.77A2.333 2.333 0 0 1 3.74 8.439h10.802a2.333 2.333 0 0 1 2.333 2.333v4.333a2.333 2.333 0 0 1-2.333 2.334H3.74a2.333 2.333 0 0 1-2.334-2.334v-4.333z" fill="#ACD3F7"/><path d="M2.922 4.89h12.44v7.735a2 2 0 0 1-2 2h-8.44a2 2 0 0 1-2-2V4.889z" fill="#EEF6FF"/><path d="M2.922 1.645h12.44V4.89H2.922V1.645z" fill="#007AFF"/><path d="M5.626.563h1.082v2.704H5.626V.563zM11.575.563h1.082v2.704h-1.082V.563z" fill="#22273C"/><path d="M4.544 7.053h2.299v2.163h-2.3V7.053zM4.544 10.298h2.299v2.164h-2.3v-2.164zM7.992 7.053h2.299v2.163H7.992V7.053zM7.992 10.298h2.299v2.164H7.992v-2.164z" fill="#ACD3F7"/><path d="M11.576 8.189a1.136 1.136 0 1 1 2.272 0 1.136 1.136 0 0 1-2.272 0z" fill="#FF9800"/><path d="M11.44 10.298h2.3v2.164h-2.3v-2.164z" fill="#ACD3F7"/></svg>