<svg width="18" height="18" fill="none" xmlns="http://www.w3.org/2000/svg"><path d="M9.08 17.438a7.392 7.392 0 1 0 0-14.784 7.392 7.392 0 0 0 0 14.784z" fill="#ACD3F7"/><path fill-rule="evenodd" clip-rule="evenodd" d="M9.035 17.438h.089a7.393 7.393 0 0 0 6.626-4.203v-1.329a1.5 1.5 0 0 0-1.5-1.5H3.75a1.5 1.5 0 0 0-1.5 1.5v.973a7.394 7.394 0 0 0 6.785 4.559z" fill="#007AFF"/><path d="M3.938 4.031a1.5 1.5 0 0 1 1.5-1.5h7.125a1.5 1.5 0 0 1 1.5 1.5v9.375a1.5 1.5 0 0 1-1.5 1.5H5.436a1.5 1.5 0 0 1-1.5-1.5V4.031z" fill="#EEF6FF"/><path d="M10.137 8.967H5.613c-.135 0-.27-.132-.27-.265 0-.132.135-.264.27-.264h4.524c.135 0 .27.132.27.264 0 .133-.068.265-.27.265zM10.137 10.224H5.613c-.135 0-.27-.132-.27-.264 0-.133.135-.265.27-.265h4.524c.135 0 .27.132.27.265 0 .132-.068.264-.27.264zM12.106 8.967h-.868c-.135 0-.27-.132-.27-.265 0-.132.135-.264.27-.264h.868c.135 0 .269.132.269.264 0 .133-.067.265-.269.265zM12.106 10.224h-.868c-.135 0-.27-.132-.27-.264 0-.133.135-.265.27-.265h.868c.135 0 .269.132.269.265 0 .132-.067.264-.269.264zM5.344 3.656a.281.281 0 1 1-.563 0 .281.281 0 0 1 .563 0zM6.188 3.656a.281.281 0 1 1-.563 0 .281.281 0 0 1 .563 0zM7.031 3.656a.281.281 0 1 1-.562 0 .281.281 0 0 1 .562 0z" fill="#22273C"/><path d="M5.344 5.73c0-.369.298-.668.666-.668h5.698c.368 0 .667.299.667.667v.917a.667.667 0 0 1-.667.667H6.01a.667.667 0 0 1-.666-.667v-.917z" fill="#FF9800"/><path d="M14.685 2.132l.729-.89c.085-.103.068-.291-.034-.375-.103-.084-.29-.064-.376.04l-.728.89c-.085.104-.068.292.034.375.103.084.248.116.375-.04zM12.857 1.701L12.73.842c-.02-.133-.17-.246-.302-.227-.13.02-.242.172-.222.305l.127.859c.02.133.17.246.302.227.13-.02.252-.105.222-.305zM15.167 3.21l.841-.215c.13-.033.294.062.326.19.033.128-.064.29-.195.323l-.841.215c-.13.033-.293-.062-.326-.19-.033-.129 0-.274.195-.323z" fill="#22273C"/></svg>