<svg width="18" height="18" fill="none" xmlns="http://www.w3.org/2000/svg"><path d="M16.45 9.828a7.392 7.392 0 1 1-14.784 0 7.392 7.392 0 0 1 14.784 0z" fill="#ACD3F7"/><mask id="a" maskUnits="userSpaceOnUse" x="1" y="2" width="16" height="16"><path d="M16.45 9.828a7.392 7.392 0 1 1-14.784 0 7.392 7.392 0 0 1 14.784 0z" fill="#ACD3F7"/></mask><g mask="url(#a)"><path d="M3.667 8.785c0-.736.596-1.333 1.333-1.333h8.157c.736 0 1.333.597 1.333 1.333v2.363H3.667V8.785z" fill="#007AFF"/><path d="M3.667 10.884H14.49v3.432H3.666v-3.432z" fill="#007AFF"/><path d="M3.667 14.052H14.49v2.362c0 .737-.597 1.334-1.333 1.334H5a1.333 1.333 0 0 1-1.333-1.334v-2.362z" fill="#007AFF"/><path fill-rule="evenodd" clip-rule="evenodd" d="M5.25 9.23c0-.183.15-.333.334-.333h4.349a.333.333 0 0 1 0 .667h-4.35a.333.333 0 0 1-.333-.333zM5.25 12.399c0-.184.15-.334.334-.334h4.349a.333.333 0 0 1 0 .667h-4.35a.333.333 0 0 1-.333-.333zM5.25 15.83c0-.184.15-.333.334-.333h4.349a.333.333 0 1 1 0 .667h-4.35a.333.333 0 0 1-.333-.334z" fill="#ACD3F7"/><path d="M12.906 9.168a.66.66 0 1 1-1.32 0 .66.66 0 0 1 1.32 0zM12.906 12.6a.66.66 0 1 1-1.32 0 .66.66 0 0 1 1.32 0zM12.906 16.032a.66.66 0 1 1-1.32 0 .66.66 0 0 1 1.32 0z" fill="#FF9800"/><path fill-rule="evenodd" clip-rule="evenodd" d="M14.49 11.148H3.667v-.333H14.49v.333zM14.49 14.316H3.667v-.334H14.49v.334z" fill="#0057B2"/></g><path d="M12 3.667a3 3 0 1 1-6 0 3 3 0 0 1 6 0z" fill="#FF9800"/><path d="M7.173 2.853l.954 2.612a1.997 1.997 0 0 1-.954-2.612zm3.177.713c0-.247-.088-.418-.164-.552-.102-.164-.197-.304-.197-.469 0-.184.14-.355.336-.355.008 0 .017 0 .026.002a2 2 0 0 0-3.023.376l.129.003c.209 0 .533-.026.533-.026.108-.006.12.153.013.165 0 0-.108.012-.228.019l.729 2.165.438-1.312-.312-.853c-.108-.007-.21-.02-.21-.02-.107-.006-.094-.17.013-.164 0 0 .33.026.527.026.208 0 .533-.026.533-.026.108-.006.12.153.013.165 0 0-.108.012-.229.019l.724 2.149.199-.666c.084-.277.15-.475.15-.646zm-1.315.275l-.6 1.744a2.004 2.004 0 0 0 1.229-.032.15.15 0 0 1-.014-.027L9.035 3.84zm1.72-1.134c.009.064.014.131.014.206 0 .203-.038.43-.153.716l-.61 1.766a1.998 1.998 0 0 0 .75-2.688z" fill="#fff"/><path d="M1.74 5.625l1.115-1.198.431 1.407-1.547-.209zM15.942 2.531l-1.115-1.198-.431 1.407 1.546-.209z" fill="#FF9800"/><path d="M15.124 5.563a.562.562 0 1 1-1.124 0 .562.562 0 0 1 1.124 0zM4.552 2.74a.563.563 0 1 1-1.125 0 .563.563 0 0 1 1.125 0z" fill="#22273C"/></svg>