<svg width="44" height="44" viewBox="0 0 44 44" fill="none" xmlns="http://www.w3.org/2000/svg">
<path d="M33.5912 24.42C33.5781 24.2125 33.5181 24.0106 33.4157 23.8296C33.3133 23.6486 33.1711 23.4931 33 23.375L22.5087 16.5L28.5862 4.82626C28.6964 4.68271 28.7771 4.51887 28.824 4.3441C28.8708 4.16932 28.8827 3.98703 28.8591 3.80764C28.8355 3.62825 28.7768 3.45527 28.6863 3.29857C28.5958 3.14188 28.4754 3.00453 28.3318 2.89439C28.1883 2.78424 28.0244 2.70345 27.8497 2.65662C27.6749 2.60979 27.4926 2.59785 27.3132 2.62147C27.1338 2.64509 26.9608 2.70382 26.8041 2.79429C26.6474 2.88476 26.5101 3.00521 26.4 3.14876L10.8212 18.4663C10.676 18.6105 10.5649 18.7854 10.4959 18.9781C10.4269 19.1707 10.4018 19.3764 10.4225 19.58C10.434 19.7864 10.4919 19.9875 10.5919 20.1685C10.6918 20.3494 10.8313 20.5054 11 20.625L21.4637 27.5963L15.3862 39.27C15.2382 39.5608 15.1985 39.8947 15.2741 40.2121C15.3496 40.5294 15.5356 40.8096 15.7987 41.0025C16.0289 41.1857 16.3158 41.283 16.61 41.2775C16.9707 41.276 17.3163 41.1328 17.5725 40.8788L33.1787 25.5338C33.3263 25.3908 33.44 25.2165 33.5114 25.0237C33.5828 24.831 33.6101 24.6247 33.5912 24.42ZM21.8625 32.8075L24.5025 27.7475C24.6604 27.4447 24.7001 27.094 24.6137 26.7635C24.5273 26.4331 24.321 26.1467 24.035 25.96L13.9562 19.25L22.2062 11.2063L19.58 16.2663C19.4207 16.5675 19.3789 16.9171 19.4627 17.2474C19.5466 17.5776 19.75 17.865 20.0337 18.0538L30.0437 24.75L21.8625 32.8075Z" fill="black"/>
<path d="M15.565 26.8125L5.56877 19.7175L21.1063 5.12876C21.3292 4.87315 21.4498 4.54415 21.4449 4.20502C21.4399 3.86589 21.3098 3.54054 21.0796 3.29151C20.8493 3.04249 20.5351 2.88735 20.1974 2.85592C19.8597 2.8245 19.5223 2.919 19.25 3.12126L3.20377 18.2463C3.06303 18.3733 2.95007 18.528 2.87199 18.7007C2.7939 18.8734 2.75238 19.0605 2.75002 19.25V20.4463C2.74884 20.6667 2.80068 20.8843 2.90119 21.0805C3.0017 21.2767 3.14792 21.4459 3.32752 21.5738L13.9838 29.1225C14.2137 29.283 14.4871 29.3693 14.7675 29.37C15.061 29.3723 15.3475 29.2805 15.5852 29.1083C15.8228 28.936 15.999 28.6922 16.0882 28.4126C16.1773 28.1329 16.1746 27.8321 16.0804 27.5541C15.9863 27.2761 15.8057 27.0355 15.565 26.8675V26.8125Z" fill="black"/>
<path d="M41.25 23.6088C41.2512 23.3883 41.1994 23.1708 41.0989 22.9745C40.9984 22.7783 40.8521 22.6091 40.6725 22.4813L30.0163 14.9325C29.8682 14.8287 29.7012 14.755 29.5246 14.7158C29.3481 14.6765 29.1656 14.6724 28.9875 14.7037C28.8094 14.735 28.6391 14.801 28.4866 14.8981C28.334 14.9951 28.202 15.1213 28.0982 15.2694C27.9943 15.4174 27.9207 15.5845 27.8814 15.761C27.8422 15.9376 27.8381 16.1201 27.8694 16.2982C27.9006 16.4763 27.9667 16.6465 28.0638 16.7991C28.1608 16.9517 28.287 17.0837 28.435 17.1875L38.5 24.2825L22.8938 38.8713C22.6377 39.1289 22.494 39.4774 22.494 39.8406C22.494 40.2039 22.6377 40.5524 22.8938 40.81C23.0204 40.9466 23.1735 41.056 23.3436 41.1316C23.5138 41.2072 23.6976 41.2475 23.8838 41.25C24.2359 41.2523 24.5755 41.1194 24.8325 40.8788L40.8788 25.7537C41.0046 25.6198 41.1023 25.4619 41.1661 25.2895C41.2299 25.1171 41.2584 24.9336 41.25 24.75V23.6088Z" fill="black"/>
</svg>
